<?xml version="1.0" encoding="utf-8"?>
<!-- Generator: Adobe Illustrator 27.5.0, SVG Export Plug-In . SVG Version: 6.00 Build 0)  -->
<svg version="1.1" xmlns="http://www.w3.org/2000/svg" xmlns:xlink="http://www.w3.org/1999/xlink" x="0px" y="0px"
	 viewBox="0 0 750 500" style="enable-background:new 0 0 750 500;" xml:space="preserve">
<g id="BACKGROUND">
	<rect style="fill:#839AE4;" width="750" height="500"/>
</g>
<g id="OBJECTS">
	<g>
		<g>
			
				<ellipse transform="matrix(0.9239 -0.3827 0.3827 0.9239 -164.5327 62.2444)" style="fill:#9AB4F7;" cx="74.195" cy="444.703" rx="29.517" ry="29.517"/>
			<path style="fill:#9AB4F7;" d="M750,414.478c-8.074-4.107-17.18-6.424-26.82-6.424c-25.603,0-47.456,16.301-56.145,39.265
				c-6.969-4.617-15.28-7.309-24.212-7.309c-24.163,0-43.813,19.632-44.454,44.093c-4.476-3.794-10.227-6.079-16.505-6.079
				c-6.561,0-12.536,2.506-17.09,6.612c-3.356-16.511-17.739-28.959-34.924-28.959c-4.999,0-9.927,1.081-14.449,3.122
				c-7.061-20.615-26.124-34.781-48.304-34.781c-24.934,0-45.763,18.255-50.29,42.336c-7.017-2.627-15.04-2.565-21.972,0.155
				c-6.786-15.837-22.419-26.649-39.836-26.649c-6.867,0-13.602,1.668-19.655,4.797c-8.161-26.27-32.569-45.067-60.281-45.067
				c-25.456,0-48.114,15.534-57.989,38.767c-7.665-5.032-16.594-7.732-25.9-7.732c-21.493,0-39.988,14.487-45.944,34.83
				c-2.591-0.697-5.263-1.054-7.954-1.054c-8.383,0-16.018,3.351-21.655,8.838V500H750V414.478z"/>
			<path style="fill:#839AE4;" d="M390.273,499.674l-0.998-0.068c0.038-0.552,0.065-1.105,0.065-1.665
				c0-13.17-10.714-23.884-23.884-23.884c-3.817,0-7.472,0.88-10.862,2.616l-0.486,0.249l-0.205-0.507
				c-5.075-12.545-17.096-20.65-30.622-20.65c-17.197,0-31.66,13.424-32.927,30.562l-0.068,0.916l-0.732-0.555
				c-3.434-2.601-7.508-3.975-11.782-3.975c-2.621,0-5.19,0.528-7.637,1.571l-0.393,0.167l-0.228-0.361
				c-3.555-5.663-9.652-9.045-16.311-9.045c-10.627,0-19.273,8.646-19.273,19.272c0,1.653,0.232,3.349,0.689,5.037l-0.965,0.262
				c-0.48-1.774-0.724-3.557-0.724-5.299c0-11.179,9.094-20.272,20.273-20.272c6.864,0,13.162,3.415,16.931,9.157
				c2.453-0.988,5.021-1.489,7.638-1.489c4.197,0,8.21,1.26,11.662,3.653c1.729-17.231,16.427-30.602,33.848-30.602
				c13.756,0,25.999,8.137,31.343,20.776c3.396-1.649,7.037-2.484,10.833-2.484c13.721,0,24.884,11.163,24.884,24.884
				C390.34,498.523,390.313,499.1,390.273,499.674z"/>
			<path style="fill:#839AE4;" d="M342.482,491.264l-0.984-0.181c0.019-0.101,1.956-10.071,12.648-15.305l0.439,0.898
				C344.362,481.681,342.5,491.168,342.482,491.264z"/>
			<circle style="fill:#9AB4F7;" cx="410.536" cy="463.153" r="21.099"/>
			<circle style="fill:#9AB4F7;" cx="666.341" cy="436.467" r="17.031"/>
			<path style="fill:#839AE4;" d="M430.826,459.598c-1.547-8.302-6.586-11.832-6.637-11.867l0.563-0.827
				c0.221,0.15,5.43,3.776,7.057,12.511L430.826,459.598z"/>
			<path style="fill:#839AE4;" d="M420.056,463.586l-0.502-0.865c8.114-4.72,16.25-4.93,24.185-0.617l-0.479,0.879
				C435.548,458.79,427.958,458.987,420.056,463.586z"/>
			<path style="fill:#839AE4;" d="M498.802,473.663l-0.877-0.478c5.515-10.109,17.174-14.805,17.291-14.851l0.367,0.93
				C515.471,459.309,504.141,463.878,498.802,473.663z"/>
			<path style="fill:#839AE4;" d="M672.138,452.655c-7.912-9.539-22.251-11.572-22.395-11.592l0.133-0.99
				c0.148,0.02,14.873,2.108,23.031,11.943L672.138,452.655z"/>
			<path style="fill:#839AE4;" d="M668.932,474.302c-2.022-2.797-3.092-6.105-3.092-9.568c0-9.012,7.331-16.343,16.343-16.343
				c3.954,0,7.771,1.431,10.746,4.029l-0.658,0.754c-2.793-2.439-6.375-3.783-10.088-3.783c-8.46,0-15.343,6.883-15.343,15.343
				c0,3.251,1.004,6.357,2.902,8.982L668.932,474.302z"/>
		</g>
		<g>
			<path style="fill:#9AB4F7;" d="M483.744,184.643c9.169,0,17.27,4.509,22.245,11.423c2.391-16.894,16.903-29.889,34.457-29.889
				c5.703,0,11.082,1.38,15.832,3.812c7.1-17.544,24.288-29.927,44.378-29.927c25.232,0,45.889,19.527,47.72,44.291
				c4.801-3.636,10.763-5.819,17.25-5.819c11.36,0,21.158,6.622,25.776,16.214c3.168-2.525,7.172-4.046,11.54-4.046
				c8.207,0,15.157,5.329,17.613,12.71h-26.572h-8.654H509.755h-4.025h-47.996C461.362,192.512,471.626,184.643,483.744,184.643z"/>
			<path style="fill:#839AE4;" d="M568.144,187.971l1.049-0.266c-3.491-13.739-12.311-18.031-12.685-18.206l-0.462,0.979
				C556.135,170.52,564.786,174.757,568.144,187.971z"/>
			<path style="fill:#839AE4;" d="M552.652,195.053c8.715-8.444,23.926-9.066,32.55-1.33l0.724-0.806
				c-9.024-8.097-24.923-7.46-34.027,1.357L552.652,195.053z"/>
			
				<rect x="506.51" y="195.745" transform="matrix(0.8525 -0.5227 0.5227 0.8525 -28.5973 294.2341)" style="fill:#839AE4;" width="1.084" height="4.087"/>
			<path style="fill:#839AE4;" d="M640.757,193.776c3.738-5.992,7.89-8.951,7.931-8.98l-0.622-0.886
				c-0.177,0.124-4.365,3.101-8.227,9.293L640.757,193.776z"/>
			<path style="fill:#839AE4;" d="M688.802,198.108c0.716-0.971,2.933-2.945,2.955-2.965l-0.719-0.81
				c-0.094,0.085-2.326,2.071-3.108,3.134L688.802,198.108z"/>
		</g>
		<g>
			<path style="fill:#9AB4F7;" d="M122.362,166.582c0.189-0.923,0.288-1.879,0.288-2.857c0-7.827-6.345-14.173-14.173-14.173
				c-3.271,0-6.274,1.119-8.673,2.98c-2.018-9.478-10.434-16.589-20.514-16.589c-11.585,0-20.977,9.392-20.977,20.977
				c0,0.256,0.01,0.51,0.019,0.764c-1.046-0.354-2.162-0.554-3.327-0.554c-5.42,0-9.865,4.155-10.337,9.452H122.362z"/>
			<path style="fill:#839AE4;" d="M64.465,163.576c-2.37-4.055-6.252-5.404-6.291-5.418l0.318-0.948
				c0.173,0.059,4.27,1.471,6.836,5.862L64.465,163.576z"/>
			<path style="fill:#839AE4;" d="M95.067,160.636l-0.965-0.266c1.277-4.623,5.208-8.072,5.375-8.217l0.655,0.756
				C100.094,152.943,96.262,156.311,95.067,160.636z"/>
			<path style="fill:#839AE4;" d="M99.822,163.252c-3.351-2.706-6.799-3.008-10.546-0.918l-0.486-0.873
				c4.082-2.28,8.007-1.938,11.661,1.014L99.822,163.252z"/>
		</g>
		<g>
			<path style="fill:#9AB4F7;" d="M264.765,253.526c-0.852-9.225-8.604-16.449-18.051-16.449c-4.408,0-8.446,1.575-11.589,4.189
				c-0.451-16.858-14.247-30.388-31.214-30.388c-6.272,0-12.107,1.855-17.001,5.038c-6.101-15.827-21.446-27.061-39.423-27.061
				c-19.95,0-36.659,13.833-41.088,32.427c-3.637-1.78-7.71-2.808-12.032-2.808c-15.153,0-27.438,12.284-27.438,27.438
				c0,2.645,0.395,5.194,1.093,7.614H264.765z"/>
			<path style="fill:#839AE4;" d="M121.35,238.761c-3.814-12.17-15.031-16.971-15.144-17.018l0.385-0.924
				c0.117,0.049,11.761,5.033,15.714,17.643L121.35,238.761z"/>
			<path style="fill:#839AE4;" d="M174.5,234.96l-0.969-0.244c3.568-14.118,12.758-19.041,13.148-19.243l0.462,0.887
				C187.049,216.407,177.953,221.301,174.5,234.96z"/>
			<path style="fill:#839AE4;" d="M190.448,241.272c-18.062-12.121-32.249-2.353-32.392-2.253l-0.579-0.814
				c0.148-0.104,14.878-10.28,33.527,2.237L190.448,241.272z"/>
			<path style="fill:#839AE4;" d="M230.508,248.329l-0.936-0.354c1.622-4.293,5.101-6.993,5.248-7.105l0.608,0.793
				C235.395,241.689,232.025,244.31,230.508,248.329z"/>
			<path style="fill:#9AB4F7;" d="M59.023,253.526c-0.632-9.616-8.611-17.225-18.387-17.225s-17.754,7.609-18.387,17.225H59.023z"/>
		</g>
		<g>
			<path style="fill:#9AB4F7;" d="M415.987,381.136c-0.487-2.495-0.748-5.071-0.748-7.709c0-22.106,17.921-40.027,40.027-40.027
				c9.781,0,18.739,3.513,25.692,9.34c7.693-18.483,25.92-31.479,47.189-31.479c25.561,0,46.737,18.769,50.502,43.277
				c4.937-3.129,10.787-4.948,17.065-4.948c17.507,0,31.716,14.089,31.923,31.547H415.987z"/>
			<path style="fill:#839AE4;" d="M567.605,367.982c3.558-8.454,11.375-12.619,11.454-12.66l-0.817-1.569
				c-0.344,0.178-8.456,4.483-12.268,13.542L567.605,367.982z"/>
			<path style="fill:#839AE4;" d="M493.25,367.214l1.752-0.242c-2.076-15.091-13.006-24.515-13.471-24.909l-1.144,1.35
				C480.495,343.506,491.269,352.81,493.25,367.214z"/>
			<path style="fill:#839AE4;" d="M480.282,374.536c6.996-6.869,19.415-8.99,27.128-4.619l0.871-1.542
				c-8.483-4.797-21.6-2.608-29.239,4.899L480.282,374.536z"/>
			<path style="fill:#839AE4;" d="M503.758,367.525c4.664-15.769,20.374-12.916,21.042-12.786l0.339-1.737
				c-0.173-0.038-17.95-3.309-23.077,14.022L503.758,367.525z"/>
			<path style="fill:#839AE4;" d="M571.425,372.958l1.618-0.717c-0.038-0.086-3.994-8.678-15.669-5.825l0.418,1.718
				C568.014,365.652,571.291,372.659,571.425,372.958z"/>
			<path style="fill:#9AB4F7;" d="M435.477,381.136c-0.703-15.242-13.28-27.384-28.696-27.384s-27.992,12.142-28.695,27.384H435.477
				z"/>
			<path style="fill:#9AB4F7;" d="M399.493,381.136c-0.965-20.923-18.23-37.59-39.391-37.59c-21.161,0-38.426,16.668-39.391,37.59
				H399.493z"/>
			<path style="fill:#839AE4;" d="M380.582,372.436l-1.683-0.553c2.767-8.435,11.262-13.925,11.623-14.155l0.951,1.493
				C391.389,359.273,383.146,364.609,380.582,372.436z"/>
			<path style="fill:#839AE4;" d="M429.105,365.845c-3.695-4.992-10.448-8.552-10.517-8.587l0.819-1.569
				c0.29,0.152,7.178,3.778,11.122,9.102L429.105,365.845z"/>
			<path style="fill:#839AE4;" d="M427.358,373.55l-1.749-0.263c1.109-7.415,5.473-10.923,12.671-10.106l-0.197,1.759
				C431.846,364.246,428.331,367.056,427.358,373.55z"/>
		</g>
		<g>
			<path style="fill:#9AB4F7;" d="M711.36,306.408c0.275-1.41,0.423-2.866,0.423-4.356c0-12.493-10.127-22.62-22.62-22.62
				c-5.528,0-10.59,1.985-14.519,5.278c-4.347-10.445-14.648-17.789-26.667-17.789c-14.445,0-26.411,10.607-28.539,24.456
				c-2.79-1.768-6.096-2.796-9.644-2.796c-9.893,0-17.923,7.962-18.04,17.827H711.36z"/>
			<path style="fill:#839AE4;" d="M625.681,298.975c-2.011-4.777-6.428-7.131-6.473-7.154l0.462-0.887
				c0.194,0.101,4.778,2.533,6.933,7.652L625.681,298.975z"/>
			<path style="fill:#839AE4;" d="M667.699,298.541l-0.99-0.137c1.173-8.528,7.349-13.853,7.612-14.076l0.646,0.763
				C674.907,285.144,668.818,290.401,667.699,298.541z"/>
			<path style="fill:#839AE4;" d="M675.027,302.679c-3.953-3.882-10.972-5.08-15.33-2.61l-0.492-0.871
				c4.794-2.711,12.206-1.474,16.523,2.769L675.027,302.679z"/>
			<path style="fill:#839AE4;" d="M661.761,298.717c-2.636-8.911-11.514-7.299-11.891-7.225l-0.191-0.982
				c0.098-0.021,10.144-1.87,13.041,7.924L661.761,298.717z"/>
			<path style="fill:#839AE4;" d="M623.521,301.787l-0.914-0.405c0.021-0.049,2.257-4.904,8.854-3.292l-0.236,0.971
				C625.449,297.658,623.597,301.618,623.521,301.787z"/>
		</g>
	</g>
	<g>
		<g>
			<path style="fill:#B0C14C;" d="M262.605,367.896c0,0,31.153-19.547,34.818-44.863c2.894-19.99-25.171-48.807-25.171-48.807
				s-29.092-32.457-72.474-32.457s-72.474,32.457-72.474,32.457s-28.065,28.817-25.171,48.807
				c3.665,25.316,34.818,44.863,34.818,44.863s-36.702,43.689-42.453,131.777h85.949h38.661h45.804
				c-1.732-55.319-0.321-103.738-0.857-121.065c-0.057-1.856,3.42-3.607,3.42-3.607S263.192,368.69,262.605,367.896z"/>
			
				<ellipse transform="matrix(0.0985 -0.9951 0.9951 0.0985 -133.0768 381.5282)" style="fill:#B0C14C;" cx="144.048" cy="264.217" rx="22.448" ry="22.448"/>
			<circle style="fill:#B0C14C;" cx="255.508" cy="264.331" r="22.448"/>
			<path style="fill:#CCD85B;" d="M261.439,303.415c-20.6,6.194-44.27-10.07-61.132-8.695c-0.175-0.014-0.352-0.024-0.529-0.034
				c-0.177,0.01-0.354,0.02-0.529,0.034c-16.862-1.374-40.532,14.889-61.132,8.695c0,0-34.375,14.72,8.791,64.595
				c-16.162,33.454-8.221,75.754,52.341,75.754c0.179,0,0.351-0.009,0.529-0.01c0.178,0.001,0.35,0.01,0.529,0.01
				c60.562,0,68.503-42.3,52.341-75.754C295.814,318.136,261.439,303.415,261.439,303.415z"/>
			<path style="fill:#B0C14C;" d="M199.778,373.285c-18.315,0-35.178-1.895-48.65-5.073c10.77,6.286,28.539,10.396,48.65,10.396
				c20.112,0,37.88-4.11,48.65-10.396C234.956,371.391,218.093,373.285,199.778,373.285z"/>
			<g>
				<g>
					<path style="fill:#43416D;" d="M197.182,268.759c0,1.771-0.547,3.207-1.222,3.207c-0.675,0-1.222-1.436-1.222-3.207
						c0-1.771,0.547-3.207,1.222-3.207C196.635,265.552,197.182,266.988,197.182,268.759z"/>
					<path style="fill:#43416D;" d="M204.817,268.759c0,1.771-0.547,3.207-1.222,3.207s-1.222-1.436-1.222-3.207
						c0-1.771,0.547-3.207,1.222-3.207S204.817,266.988,204.817,268.759z"/>
				</g>
				<path style="fill:#FFFFFF;" d="M154.892,263.052c0,6.385-5.176,11.561-11.562,11.561c-6.385,0-11.561-5.176-11.561-11.561
					c0-6.385,5.176-11.562,11.561-11.562C149.716,251.491,154.892,256.667,154.892,263.052z"/>
				<path style="fill:#43416D;" d="M149.535,263.052c0,3.426-2.778,6.204-6.204,6.204c-3.426,0-6.204-2.778-6.204-6.204
					c0-3.426,2.777-6.204,6.204-6.204C146.757,256.848,149.535,259.626,149.535,263.052z"/>
				<path style="fill:#FFFFFF;" d="M267.787,263.167c0,6.385-5.176,11.561-11.561,11.561c-6.385,0-11.561-5.176-11.561-11.561
					c0-6.385,5.176-11.561,11.561-11.561C262.61,251.605,267.787,256.781,267.787,263.167z"/>
				<path style="fill:#CCD85B;" d="M128.497,298.767c0,3.469-3.275,6.281-7.315,6.281c-4.04,0-7.315-2.812-7.315-6.281
					c0-3.469,3.275-6.281,7.315-6.281C125.222,292.486,128.497,295.298,128.497,298.767z"/>
				<path style="fill:#CCD85B;" d="M285.69,298.767c0,3.469-3.275,6.281-7.315,6.281c-4.04,0-7.315-2.812-7.315-6.281
					c0-3.469,3.275-6.281,7.315-6.281C282.414,292.486,285.69,295.298,285.69,298.767z"/>
				<path style="fill:#43416D;" d="M268.334,301.779c-11.118,3.802-23.446,4.742-34.827,1.455
					c-5.701-1.567-11.122-3.734-16.703-5.137c-11.133-2.902-22.919-2.902-34.052,0c-11.126,3.078-22.369,8.162-34.282,7.085
					c-5.88-0.421-11.704-1.461-17.247-3.402l0.106-0.315c5.617,1.484,11.416,2.313,17.193,2.393
					c11.896,0.631,22.429-4.731,33.657-7.94c11.458-3.122,23.741-3.122,35.2,0c8.545,2.309,16.345,6.163,25.049,7.443
					c8.601,1.138,17.4,0.299,25.801-1.896L268.334,301.779L268.334,301.779z"/>
				<path style="fill:#B0C14C;" d="M199.778,307.242c-5.405,0-10.382-1.359-14.359-3.639c3.179,4.509,8.423,7.456,14.359,7.456
					c5.936,0,11.18-2.948,14.359-7.456C210.16,305.884,205.183,307.242,199.778,307.242z"/>
				<path style="fill:#43416D;" d="M262.429,263.167c0,3.426-2.777,6.204-6.204,6.204c-3.426,0-6.204-2.778-6.204-6.204
					s2.777-6.204,6.204-6.204C259.652,256.963,262.429,259.74,262.429,263.167z"/>
				<path style="fill:#43416D;" d="M269.162,305.062l-1.166-0.189c0.361-2.22-0.152-4.056-1.572-5.615l0.875-0.796
					C268.953,300.28,269.58,302.501,269.162,305.062z"/>
				<path style="fill:#43416D;" d="M130.561,305.062c-0.417-2.562,0.21-4.783,1.863-6.601l0.875,0.796
					c-1.419,1.558-1.932,3.395-1.572,5.615L130.561,305.062z"/>
			</g>
		</g>
		<g>
			<path style="fill:#FFBE0D;" d="M272.517,380.474c25.801,17.952,60.081,72.852,41.72,89.26c-26.144,21.28-66.9-67.49-66.9-67.49
				L272.517,380.474z"/>
			<path style="fill:#FFBE0D;" d="M280.717,389.999c0,0,8.204-7.342,7.307-14.742c-0.897-7.4-8.52-21.091-8.52-21.091
				c-24.306,24.442-80.583,37.975-80.583,37.975s-54.927-12.016-78.934-37.975c0,0-7.622,13.691-8.52,21.091
				c-0.897,7.4,7.307,14.742,7.307,14.742s-25.382,36.579-26.92,109.674h103.777h8.228h71.717
				c-2.136-31.283-7.307-68.408-7.307-68.408L280.717,389.999z"/>
			<path style="fill:#D28600;" d="M125.485,499.703l-1.18-0.058c1.313-26.416,5.356-68.074,5.396-68.38l1.173,0.157
				C130.833,431.726,126.796,473.337,125.485,499.703z"/>
			<path style="fill:#D28600;" d="M270.008,442.033c-0.707-6.049-1.724-10.661-1.738-10.768l-1.173,0.157
				c0.014,0.106,1.049,4.865,1.747,10.824L270.008,442.033z"/>
			<path style="fill:#D28600;" d="M153.276,397.767c-16.497,0-28.173-2.467-34.798-7.366l0.594-0.805
				c19.247,14.235,79.151,2.783,79.754,2.664l0.094-0.017l0.094,0.017c0.581,0.108,58.428,10.701,81.452-2.694l0.502,0.865
				c-22.903,13.323-79.369,3.314-82.044,2.829c-1.308,0.249-15.977,2.991-32.675,4.064
				C161.638,397.62,157.312,397.767,153.276,397.767z"/>
			<rect x="198.422" y="393.04" style="fill:#D28600;" width="1" height="106.663"/>
			<g>
				<g>
					<rect x="184.888" y="392.294" style="fill:#D28600;" width="1" height="22.424"/>
					<path style="fill:#FFFFFF;" d="M185.388,418.404L185.388,418.404c-0.772,0-1.398-0.626-1.398-1.398v-2.771
						c0-0.772,0.626-1.398,1.398-1.398l0,0c0.772,0,1.398,0.626,1.398,1.398v2.771C186.786,417.778,186.16,418.404,185.388,418.404z
						"/>
				</g>
				<path style="fill:#D28600;" d="M186.738,392.091c0,0.746-0.605,1.35-1.35,1.35c-0.746,0-1.35-0.604-1.35-1.35
					c0-0.746,0.605-1.35,1.35-1.35C186.134,390.74,186.738,391.345,186.738,392.091z"/>
			</g>
			<g>
				<g>
					<rect x="211.955" y="392.294" style="fill:#D28600;" width="1" height="29.066"/>
					<path style="fill:#FFFFFF;" d="M212.455,424.143L212.455,424.143c-0.772,0-1.398-0.626-1.398-1.398v-2.771
						c0-0.772,0.626-1.398,1.398-1.398l0,0c0.772,0,1.398,0.626,1.398,1.398v2.771C213.853,423.517,213.227,424.143,212.455,424.143
						z"/>
				</g>
				<path style="fill:#D28600;" d="M213.805,392.091c0,0.746-0.604,1.35-1.35,1.35c-0.746,0-1.35-0.604-1.35-1.35
					c0-0.746,0.604-1.35,1.35-1.35C213.201,390.74,213.805,391.345,213.805,392.091z"/>
			</g>
			<path style="fill:#D28600;" d="M133.449,474.781l-0.209-0.978c11.933-2.553,21.589-8.928,28.699-18.949l0.816,0.578
				C155.495,465.664,145.635,472.174,133.449,474.781z"/>
			<path style="fill:#D28600;" d="M264.394,474.781c-12.186-2.606-22.046-9.117-29.307-19.35l0.816-0.578
				c7.11,10.022,16.767,16.397,28.699,18.949L264.394,474.781z"/>
			
				<rect x="161.814" y="452.351" transform="matrix(0.5722 -0.8201 0.8201 0.5722 -303.735 327.7974)" style="fill:#D28600;" width="1" height="5.332"/>
			
				<rect x="232.83" y="454.517" transform="matrix(0.8201 -0.5722 0.5722 0.8201 -217.9928 216.5909)" style="fill:#D28600;" width="5.332" height="1"/>
			
				<rect x="261.833" y="473.792" transform="matrix(0.2148 -0.9767 0.9767 0.2148 -255.539 630.7327)" style="fill:#D28600;" width="5.332" height="1"/>
			<path style="fill:#D28600;" d="M196.992,398.195c0,1.334-1.081,2.415-2.415,2.415c-1.334,0-2.415-1.081-2.415-2.415
				s1.081-2.415,2.415-2.415C195.911,395.78,196.992,396.861,196.992,398.195z"/>
			<path style="fill:#D28600;" d="M196.992,441.923c0,1.334-1.081,2.415-2.415,2.415c-1.334,0-2.415-1.081-2.415-2.415
				s1.081-2.415,2.415-2.415C195.911,439.507,196.992,440.589,196.992,441.923z"/>
			<path style="fill:#D28600;" d="M196.992,485.65c0,1.334-1.081,2.415-2.415,2.415c-1.334,0-2.415-1.081-2.415-2.415
				c0-1.334,1.081-2.415,2.415-2.415C195.911,483.235,196.992,484.316,196.992,485.65z"/>
		</g>
		<path style="fill:#D28600;" d="M298.098,462.01c-9.175,0-16.639-7.464-16.639-16.639s7.464-16.639,16.639-16.639
			c9.174,0,16.638,7.464,16.638,16.639S307.272,462.01,298.098,462.01z M298.098,429.732c-8.623,0-15.639,7.016-15.639,15.639
			c0,8.623,7.016,15.639,15.639,15.639c8.623,0,15.638-7.016,15.638-15.639C313.736,436.748,306.721,429.732,298.098,429.732z"/>
		<path style="fill:#B0C14C;" d="M310.385,445.12c0,0-1.445-4.456-3.405-20.619c-1.96-16.163-16.039-25.919-22.08-19.292
			c-7.69,3.527,2.135,43.482,2.135,43.482C290.823,459.94,308.315,460.289,310.385,445.12z"/>
		<g>
			<rect x="279.753" y="147.742" style="fill:#FFFFFF;" width="5.591" height="262.505"/>
			<path style="fill:#43416D;" d="M313.644,439.525c9.017-3.991,15.327-13.02,15.336-23.5c0.003-2.702-2.186-4.895-4.888-4.896
				c-2.703-0.004-4.893,2.188-4.896,4.888c-0.008,8.778-7.156,15.913-15.932,15.908c-8.779-0.008-15.915-7.155-15.909-15.934
				l0.025-30.97c0.003-2.702-2.186-4.895-4.888-4.896c-2.703-0.004-4.894,2.187-4.896,4.888l-0.024,30.97
				c-0.011,14.174,11.511,25.714,25.685,25.725C306.95,441.712,310.466,440.931,313.644,439.525z"/>
			<path style="fill:#B0C14C;" d="M287.362,403.633c0,0-10.16,16.636,0.733,24.609c10.893,7.973,16.648-8.101,16.648-8.101
				L287.362,403.633z"/>
			<g>
				<path style="fill:#FFBE0D;" d="M282.648,128.23v-0.063c-0.005,0.01-0.013,0.021-0.018,0.031
					c-0.005-0.011-0.013-0.021-0.019-0.031v0.063c-13.16,25.706-157.24,31.344-158.448,92.462
					c5.927-2.838,12.286-3.104,19.343,0.016c17.658-9.619,33.693-10.846,43.7,0c22.656-10.865,41.934-9.965,58.314,0
					c18.031-13.24,53.569-13.697,74.217,0c17.05-9.543,36.745-9.507,58.314,0c12.738-9.446,27.017-9.904,43.7,0
					c7.057-3.12,13.417-2.855,19.343-0.016C439.889,159.574,295.808,153.936,282.648,128.23z"/>
				<g>
					<path style="fill:#D28600;" d="M421.245,220.702c-0.649-37.773-50.172-54.237-89.966-67.467
						c-23.179-7.706-43.308-14.398-48.649-23.734c-5.34,9.337-25.456,16.028-48.621,23.734
						c-39.768,13.229-89.261,29.693-89.911,67.467l-1.182-0.021c0.665-38.611,50.598-55.222,90.72-68.568
						c23.647-7.866,44.081-14.665,48.387-24.01v-2.657l0.599,1.316l0.599-1.348l0.016,2.689c4.304,9.347,24.753,16.144,48.414,24.01
						c40.147,13.347,90.111,29.958,90.775,68.568L421.245,220.702z"/>
					<path style="fill:#D28600;" d="M377.461,220.699c-0.451-37.842-34.36-54.292-61.606-67.509
						c-15.448-7.493-28.923-14.031-33.072-22.954l-0.044,0.201l-0.148-0.452c-4.01,9.054-17.593,15.642-33.187,23.207
						c-27.246,13.217-61.155,29.666-61.606,67.508l-1.182-0.014c0.459-38.572,34.733-55.199,62.272-68.558
						c16.189-7.853,30.177-14.639,33.139-23.986v-3.551l0.599,1.762l0.578-1.736l0.027,3.552c2.879,9.28,16.902,16.083,33.139,23.96
						c27.539,13.359,61.813,29.986,62.272,68.558L377.461,220.699z"/>
					<path style="fill:#D28600;" d="M319.148,220.694c-0.18-38.018-13.362-54.467-23.955-67.684
						c-5.672-7.078-10.659-13.3-12.563-21.423c-1.905,8.122-6.892,14.345-12.564,21.423c-10.592,13.217-23.775,29.666-23.954,67.684
						l-1.182-0.005c0.181-38.432,13.507-55.059,24.214-68.42c6.3-7.86,11.741-14.65,12.895-24.111l0.165-0.008l-0.162-0.018
						l0.334,0.01l0.837-0.042l-0.335,0.056l0.346,0.01c1.15,9.454,6.591,16.242,12.89,24.104
						c10.708,13.36,24.034,29.987,24.215,68.418L319.148,220.694z"/>
				</g>
				<path style="fill:#43416D;" d="M280.231,131.493h4.798l-1.046-6.236c-0.29-1.731-2.416-1.731-2.706,0L280.231,131.493z"/>
				<path style="fill:#43416D;" d="M378.052,223.474L378.052,223.474c-0.636,0-1.152-0.516-1.152-1.152v-2.264
					c0-0.636,0.516-1.152,1.152-1.152l0,0c0.636,0,1.152,0.516,1.152,1.152v2.264C379.204,222.958,378.688,223.474,378.052,223.474z
					"/>
				<path style="fill:#43416D;" d="M319.738,223.474L319.738,223.474c-0.636,0-1.151-0.516-1.151-1.152v-2.264
					c0-0.636,0.515-1.152,1.151-1.152l0,0c0.636,0,1.152,0.516,1.152,1.152v2.264C320.89,222.958,320.374,223.474,319.738,223.474z"
					/>
				<path style="fill:#43416D;" d="M245.521,223.474L245.521,223.474c-0.636,0-1.152-0.516-1.152-1.152v-2.264
					c0-0.636,0.516-1.152,1.152-1.152l0,0c0.636,0,1.152,0.516,1.152,1.152v2.264C246.673,222.958,246.157,223.474,245.521,223.474z
					"/>
				<path style="fill:#43416D;" d="M187.207,223.474L187.207,223.474c-0.636,0-1.152-0.516-1.152-1.152v-2.264
					c0-0.636,0.516-1.152,1.152-1.152l0,0c0.636,0,1.152,0.516,1.152,1.152v2.264C188.359,222.958,187.843,223.474,187.207,223.474z
					"/>
				<path style="fill:#43416D;" d="M143.507,223.474L143.507,223.474c-0.636,0-1.152-0.516-1.152-1.152v-2.264
					c0-0.636,0.516-1.152,1.152-1.152l0,0c0.636,0,1.152,0.516,1.152,1.152v2.264C144.658,222.958,144.143,223.474,143.507,223.474z
					"/>
				<path style="fill:#43416D;" d="M421.836,223.474L421.836,223.474c-0.636,0-1.152-0.516-1.152-1.152v-2.264
					c0-0.636,0.516-1.152,1.152-1.152l0,0c0.636,0,1.152,0.516,1.152,1.152v2.264C422.988,222.958,422.472,223.474,421.836,223.474z
					"/>
			</g>
			<path style="fill:#88982B;" d="M299.719,428.753l-0.813-0.859c0.025-0.023,2.497-2.374,3.553-4.385l1.046,0.549
				C302.357,426.245,299.826,428.651,299.719,428.753z"/>
			<path style="fill:#B0C14C;" d="M280.288,419.965c0.36,1.925-0.846,3.766-2.694,4.111c-1.847,0.345-3.15-6.628-1.303-6.973
				C278.139,416.758,279.929,418.039,280.288,419.965z"/>
		</g>
	</g>
	<g>
		<path style="fill:#9AB4F7;" d="M306.506,112.544c-24.169,0-44.543-18.636-46.776-42.592c-4.813,3.419-10.44,5.222-16.332,5.222
			c-3.657,0-7.244-0.71-10.668-2.111c-5.18,7.989-13.896,12.744-23.401,12.744c-15.395,0-27.919-12.524-27.919-27.918
			c0-2.397,0.335-4.854,0.997-7.298l0.965,0.262c-0.639,2.359-0.962,4.727-0.962,7.036c0,14.843,12.076,26.918,26.919,26.918
			c9.301,0,17.817-4.723,22.782-12.633l0.227-0.361l0.393,0.167c3.417,1.456,7.006,2.194,10.667,2.194
			c5.97,0,11.66-1.92,16.454-5.551l0.732-0.556l0.068,0.917c1.764,23.865,21.905,42.56,45.854,42.56
			c18.835,0,35.573-11.288,42.643-28.757l0.205-0.507l0.486,0.249c4.73,2.42,9.828,3.647,15.151,3.647
			c18.368,0,33.313-14.943,33.313-33.312c0-0.697-0.028-1.435-0.09-2.322l0.998-0.068c0.063,0.91,0.092,1.67,0.092,2.391
			c0,18.92-15.393,34.312-34.313,34.312c-5.302,0-10.386-1.182-15.121-3.514C342.531,101.227,325.569,112.544,306.506,112.544z"/>
		<path style="fill:#9AB4F7;" d="M643.999,108.308c-14.462,0-27.335-8.561-32.944-21.855c-3.574,1.739-7.407,2.62-11.404,2.62
			c-14.413,0-26.14-11.727-26.14-26.14c0-0.613,0.028-1.218,0.069-1.82l0.998,0.068c-0.039,0.579-0.067,1.162-0.067,1.752
			c0,13.862,11.277,25.14,25.14,25.14c4.019,0,7.865-0.926,11.434-2.753l0.486-0.249l0.205,0.507
			c5.342,13.201,17.99,21.73,32.224,21.73c18.097,0,33.317-14.126,34.65-32.16l0.068-0.916l0.732,0.555
			c3.615,2.737,7.904,4.185,12.404,4.185c2.76,0,5.466-0.557,8.041-1.654l0.392-0.167l0.228,0.361
			c3.742,5.963,10.162,9.522,17.173,9.522c11.19,0,20.292-9.102,20.292-20.291c0-1.74-0.244-3.524-0.725-5.304l0.965-0.262
			c0.504,1.865,0.76,3.737,0.76,5.565c0,11.74-9.552,21.291-21.292,21.291c-7.217,0-13.836-3.594-17.792-9.635
			c-2.583,1.044-5.286,1.572-8.042,1.572c-4.423,0-8.65-1.332-12.284-3.862C677.773,94.236,662.319,108.308,643.999,108.308z"/>
		<path style="fill:#9AB4F7;" d="M77.445,101.943c-13.315,0-24.561-10.169-25.98-23.311c-2.622,1.771-5.653,2.703-8.821,2.703
			c-1.986,0-3.934-0.374-5.796-1.112c-2.909,4.376-7.734,6.976-12.992,6.976c-8.613,0-15.62-7.007-15.62-15.62
			c0-1.344,0.188-2.718,0.558-4.083l0.965,0.262c-0.347,1.28-0.523,2.565-0.523,3.821c0,8.062,6.559,14.62,14.62,14.62
			c5.052,0,9.678-2.565,12.374-6.861l0.228-0.361l0.393,0.167c1.854,0.791,3.805,1.192,5.794,1.192c3.242,0,6.333-1.043,8.938-3.016
			l0.732-0.555l0.068,0.916c0.964,13.044,11.973,23.262,25.063,23.262c10.295,0,19.443-6.17,23.308-15.718l0.205-0.507l0.486,0.249
			c2.576,1.318,5.353,1.987,8.253,1.987c10.006,0,18.146-8.14,18.146-18.146c0-0.426-0.021-0.847-0.05-1.265l0.998-0.07
			c0.031,0.441,0.052,0.886,0.052,1.335c0,10.557-8.589,19.146-19.147,19.146c-2.879,0-5.644-0.625-8.224-1.857
			C97.342,95.742,87.969,101.943,77.445,101.943z"/>
		<path style="fill:#9AB4F7;" d="M28.801,0c-0.689,2.943-1.087,5.999-1.087,9.156c0,21.987,17.495,39.812,39.076,39.812
			c6.156,0,11.956-1.49,17.136-4.074c6.307,26.98,30.103,47.051,58.515,47.051c25.603,0,47.456-16.3,56.145-39.265
			c6.969,4.617,15.28,7.31,24.212,7.31c24.163,0,43.813-19.632,44.454-44.093c4.476,3.793,10.228,6.079,16.505,6.079
			c6.561,0,12.536-2.506,17.09-6.612c3.356,16.511,17.739,28.959,34.924,28.959c4.999,0,9.927-1.081,14.449-3.122
			c7.061,20.615,26.124,34.78,48.304,34.78c24.934,0,45.763-18.255,50.29-42.336c7.017,2.627,15.04,2.564,21.972-0.155
			c6.786,15.837,22.42,26.649,39.836,26.649c6.867,0,13.602-1.668,19.656-4.797c8.161,26.27,32.569,45.067,60.281,45.067
			c25.456,0,48.114-15.534,57.989-38.767c7.665,5.032,16.594,7.732,25.9,7.732c21.493,0,39.988-14.487,45.944-34.83
			c2.591,0.697,5.263,1.055,7.954,1.055c8.383,0,16.018-3.351,21.655-8.838V0H28.801z"/>
		<path style="fill:#839AE4;" d="M542.34,45.236c-13.755,0-25.998-8.137-31.343-20.776c-3.395,1.648-7.037,2.483-10.833,2.483
			c-13.721,0-24.884-11.162-24.884-24.883c0-0.584,0.027-1.161,0.067-1.734l0.998,0.07c-0.038,0.55-0.065,1.104-0.065,1.664
			c0,13.169,10.714,23.883,23.884,23.883c3.817,0,7.473-0.88,10.862-2.615l0.486-0.249l0.205,0.507
			c5.077,12.545,17.097,20.65,30.622,20.65c17.196,0,31.66-13.425,32.928-30.562l0.068-0.917l0.732,0.556
			c3.432,2.601,7.506,3.975,11.781,3.975c2.621,0,5.19-0.528,7.638-1.57l0.392-0.167l0.228,0.361
			c3.555,5.663,9.651,9.044,16.311,9.044c10.627,0,19.272-8.646,19.272-19.272c0-1.653-0.232-3.349-0.688-5.037l0.965-0.262
			c0.481,1.774,0.724,3.557,0.724,5.299c0,11.179-9.094,20.272-20.272,20.272c-6.864,0-13.161-3.414-16.93-9.156
			c-2.454,0.987-5.021,1.488-7.639,1.488c-4.198,0-8.212-1.26-11.661-3.653C574.458,31.866,559.76,45.236,542.34,45.236z"/>
		<path style="fill:#839AE4;" d="M511.473,24.223l-0.439-0.899c10.225-5.004,12.086-14.492,12.103-14.588l0.984,0.181
			C524.103,9.017,522.167,18.988,511.473,24.223z"/>
		<path style="fill:#9AB4F7;" d="M259.654,69.05c-0.005-0.077-0.432-7.881,0.807-16.632l0.99,0.141
			c-1.225,8.648-0.803,16.357-0.799,16.435L259.654,69.05z"/>
		<path style="fill:#9AB4F7;" d="M349.348,83.399c-10.582-6.579-12.179-14.92-12.241-15.271l0.984-0.177
			c0.015,0.082,1.605,8.269,11.784,14.599L349.348,83.399z"/>
		<path style="fill:#9AB4F7;" d="M263.671,53.768c-2.468,0-4.81-0.562-6.85-1.682c-3.219-1.77-5.343-4.76-5.982-8.42l0.984-0.172
			c0.587,3.355,2.532,6.096,5.479,7.715c3.68,2.022,8.448,2.079,13.086,0.159l0.383,0.924
			C268.394,53.276,265.978,53.768,263.671,53.768z"/>
		<path style="fill:#9AB4F7;" d="M328.217,71.303c-3.051,0-6.069-0.845-8.843-2.513l0.516-0.857
			c4.311,2.594,9.253,3.074,13.913,1.354c5.801-2.142,10.468-7.385,12.802-14.386l0.949,0.316
			c-2.432,7.29-7.317,12.761-13.404,15.008C332.199,70.945,330.202,71.303,328.217,71.303z"/>
		<path style="fill:#9AB4F7;" d="M232.334,72.897c-0.231-0.101-5.706-2.511-8.5-5.877l0.77-0.639c2.643,3.186,8.076,5.575,8.131,5.6
			L232.334,72.897z"/>
		<path style="fill:#9AB4F7;" d="M51.383,77.728c-0.009-0.456-0.158-11.233,4.896-16.908l0.746,0.666
			c-4.796,5.385-4.645,16.115-4.643,16.223L51.383,77.728z"/>
		<path style="fill:#9AB4F7;" d="M66.91,65.213c-8.888-0.266-13.695-4.356-14.29-12.157l0.998-0.076
			c0.556,7.308,4.914,10.982,13.321,11.233L66.91,65.213z"/>
		<path style="fill:#9AB4F7;" d="M700.3,78.231l-0.416-0.91c0.041-0.019,4.193-1.968,7.421-7.14l0.848,0.529
			C704.757,76.153,700.479,78.149,700.3,78.231z"/>
		<path style="fill:#9AB4F7;" d="M519.521,91.026c-8.392,0-15.837-5.734-18.044-13.761c-5.05,5.054-12.546,7.177-19.632,5.265
			c-2.365,3.553-6.282,5.662-10.551,5.662c-4.623,0-8.84-2.491-11.083-6.525c-0.672,0.047-1.284,0.069-1.864,0.069
			c-15.247,0-27.652-12.404-27.652-27.652h1c0,14.696,11.956,26.652,26.652,26.652c0.645,0,1.337-0.029,2.111-0.09l0.329-0.026
			l0.153,0.293c2.026,3.873,5.994,6.279,10.354,6.279c4.047,0,7.75-2.059,9.906-5.507l0.2-0.32l0.362,0.104
			c7.131,2.058,14.736-0.204,19.611-5.544l0.648-0.711l0.209,0.939c1.782,8.038,9.053,13.872,17.289,13.872
			c9.772,0,17.721-7.949,17.721-17.721c0-2.872-0.664-5.61-1.975-8.139l0.889-0.461c1.365,2.635,2.087,5.608,2.087,8.6
			C538.242,82.628,529.844,91.026,519.521,91.026z"/>
		<path style="fill:#9AB4F7;" d="M460.054,81.375c-0.099-0.19-2.4-4.722-0.842-10.413l0.965,0.264
			c-1.452,5.301,0.742,9.646,0.765,9.689L460.054,81.375z"/>
		<path style="fill:#9AB4F7;" d="M463.25,71.861c-1.997,0-3.944-0.429-5.685-1.297c-3.1-1.546-5.061-4.281-5.381-7.505l0.996-0.1
			c0.284,2.875,2.045,5.32,4.831,6.71c3.749,1.871,8.561,1.521,12.56-0.909l0.52,0.854C468.643,71.103,465.904,71.861,463.25,71.861
			z"/>
		<path style="fill:#9AB4F7;" d="M501.256,76.372c-0.048-0.215-1.161-5.301,0.008-9.326l0.961,0.279
			c-1.099,3.781-0.004,8.778,0.008,8.828L501.256,76.372z"/>
		<path style="fill:#9AB4F7;" d="M481.451,82.419c-3.649-1.357-6.098-3.69-7.276-6.934l0.939-0.342
			c1.074,2.955,3.323,5.088,6.685,6.338L481.451,82.419z"/>
		<g>
			<g>
				<g>
					<path style="fill:#FFFFFF;" d="M750,500H498.175c-0.09-0.871-0.138-1.755-0.138-2.651c0-14.091,11.423-25.514,25.514-25.514
						c6.139,0,11.77,2.171,16.172,5.783c2.961-18.642,19.103-32.894,38.578-32.894c21.577,0,39.069,17.492,39.069,39.069
						c0,0.277-0.015,0.551-0.021,0.827c3.818-3.303,8.784-5.314,14.228-5.314c4.878,0,9.367,1.624,12.997,4.333
						c3.175-14.496,16.082-25.349,31.531-25.349c7.915,0,15.16,2.852,20.776,7.579c3.6-23.812,24.151-42.064,48.968-42.064
						c1.398,0,2.783,0.06,4.152,0.174V500z"/>
					<g>
						<path style="fill:#C5D7FF;" d="M704.425,479.004c-1.666-8.029-7.783-12.688-7.845-12.733l0.6-0.801
							c0.264,0.197,6.482,4.935,8.224,13.331L704.425,479.004z"/>
						<path style="fill:#C5D7FF;" d="M719.623,489.87c-2.386-6.261-8.491-10.468-15.193-10.468c-5.93,0-11.391,3.232-14.25,8.435
							l-0.877-0.482c3.036-5.522,8.832-8.952,15.127-8.952c7.114,0,13.595,4.466,16.127,11.112L719.623,489.87z"/>
						<path style="fill:#C5D7FF;" d="M546.664,489.804c-1.923-8.432-7.149-11.726-7.202-11.758l0.521-0.854
							c0.229,0.14,5.635,3.522,7.656,12.389L546.664,489.804z"/>
						<path style="fill:#C5D7FF;" d="M611.659,492.556l-0.904-0.426c2.127-4.52,6.112-7.763,6.281-7.898l0.627,0.779
							C617.624,485.042,613.685,488.25,611.659,492.556z"/>
						<path style="fill:#C5D7FF;" d="M648.829,490.836c-1.229-4.243-4.523-6.772-4.556-6.797l0.602-0.799
							c0.146,0.109,3.591,2.743,4.915,7.318L648.829,490.836z"/>
					</g>
				</g>
				<g>
					<path style="fill:#FFFFFF;" d="M318.647,500c1.29-9.831,9.681-17.426,19.863-17.426c4.544,0,8.721,1.529,12.083,4.076
						c1.283-17.347,15.752-31.025,33.427-31.025c14.073,0,26.112,8.673,31.086,20.963c3.328-1.703,7.095-2.67,11.09-2.67
						c13.467,0,24.383,10.917,24.383,24.383c0,0.572-0.027,1.137-0.066,1.699H318.647z"/>
					<path style="fill:#C5D7FF;" d="M406.911,489.214l-0.969-0.246c2.459-9.678,8.688-12.708,8.951-12.832l0.427,0.904
						C415.259,477.068,409.248,480.019,406.911,489.214z"/>
					<path style="fill:#C5D7FF;" d="M417.562,494.231c-6.064-5.875-16.642-6.307-22.636-0.928l-0.668-0.744
						c6.365-5.711,17.579-5.267,23.999,0.953L417.562,494.231z"/>
					<path style="fill:#C5D7FF;" d="M355.829,493.314c-2.611-4.186-5.493-6.234-5.522-6.255l0.574-0.818
						c0.124,0.087,3.078,2.187,5.796,6.544L355.829,493.314z"/>
				</g>
				<g>
					<path style="fill:#FFFFFF;" d="M138.553,500H0V390.578c1.31-0.071,2.625-0.121,3.953-0.121
						c33.792,0,62.095,23.43,69.596,54.927c6.16-3.016,13.059-4.756,20.381-4.756c25.667,0,46.475,20.808,46.475,46.475
						C140.405,491.583,139.736,495.901,138.553,500z"/>
					<path style="fill:#C5D7FF;" d="M47.951,474.906l-1.072-0.335c6.656-21.233,26.257-29.623,26.454-29.706l0.432,1.036
						C73.574,445.982,54.445,454.186,47.951,474.906z"/>
					<path style="fill:#C5D7FF;" d="M49.266,491.87l-1.094-0.25c1.824-8.017,0.733-14.829-3.154-19.703
						c-3.994-5.004-10.817-7.649-19.732-7.649v-1.123c9.269,0,16.395,2.791,20.609,8.073
						C50.004,476.367,51.169,483.508,49.266,491.87z"/>
					<path style="fill:#FFFFFF;" d="M197.69,500c-6.075-13.457-19.601-22.827-35.324-22.827c-15.723,0-29.249,9.371-35.324,22.827
						H197.69z"/>
					<path style="fill:#FFFFFF;" d="M242.478,500c0.325-1.748,0.504-3.548,0.504-5.39c0-16.178-13.115-29.293-29.293-29.293
						c-16.178,0-29.294,13.115-29.294,29.293c0,1.842,0.178,3.642,0.504,5.39H242.478z"/>
					<path style="fill:#FFFFFF;" d="M279.392,500c-5.106-8.59-14.476-14.35-25.194-14.35c-10.718,0-20.088,5.76-25.194,14.35
						H279.392z"/>
					<path style="fill:#C5D7FF;" d="M194.663,495.909c-3.59-6.448-9.028-10.265-9.082-10.302l0.639-0.923
						c0.231,0.16,5.702,3.995,9.423,10.68L194.663,495.909z"/>
					<path style="fill:#C5D7FF;" d="M133.354,491.105l-0.888-0.688c2.305-2.973,7.392-6.711,7.608-6.869l0.662,0.906
						C140.684,484.492,135.561,488.256,133.354,491.105z"/>
					<path style="fill:#C5D7FF;" d="M136.111,495.767c-0.075-0.307-1.956-7.518-13.593-7.518v-1.123
						c12.564,0,14.665,8.297,14.685,8.382L136.111,495.767z"/>
					<path style="fill:#C5D7FF;" d="M234.189,494.331l-0.844-0.741c3.096-3.531,8.481-5.826,8.71-5.923l0.436,1.035
						C242.437,488.724,237.113,490.994,234.189,494.331z"/>
				</g>
			</g>
			<g>
				<path style="fill:#FFFFFF;" d="M0,0h251.825c0.09,0.871,0.138,1.755,0.138,2.651c0,14.091-11.423,25.514-25.514,25.514
					c-6.139,0-11.77-2.171-16.172-5.783c-2.961,18.642-19.103,32.894-38.578,32.894c-21.577,0-39.069-17.492-39.069-39.069
					c0-0.277,0.015-0.551,0.021-0.827c-3.818,3.303-8.784,5.314-14.228,5.314c-4.878,0-9.367-1.624-12.997-4.333
					c-3.175,14.496-16.082,25.349-31.531,25.349c-7.915,0-15.16-2.852-20.776-7.579c-3.6,23.812-24.151,42.064-48.968,42.064
					c-1.398,0-2.782-0.06-4.152-0.174V0z"/>
				<g>
					<path style="fill:#C5D7FF;" d="M52.819,34.53c-0.264-0.197-6.48-4.935-8.224-13.331l0.979-0.203
						c1.667,8.029,7.783,12.687,7.845,12.733L52.819,34.53z"/>
					<path style="fill:#C5D7FF;" d="M45.57,21.598c-7.114,0-13.596-4.466-16.126-11.112l0.934-0.355
						c2.385,6.261,8.49,10.468,15.192,10.468c5.931,0,11.392-3.232,14.251-8.435l0.877,0.482
						C57.662,18.167,51.865,21.598,45.57,21.598z"/>
					<path style="fill:#C5D7FF;" d="M210.018,22.808c-0.229-0.14-5.635-3.522-7.657-12.389l0.975-0.223
						c1.924,8.432,7.15,11.726,7.203,11.758L210.018,22.808z"/>
					<path style="fill:#C5D7FF;" d="M132.965,15.768l-0.627-0.779c0.039-0.031,3.977-3.239,6.003-7.545l0.904,0.426
						C137.118,12.389,133.133,15.633,132.965,15.768z"/>
					<path style="fill:#C5D7FF;" d="M105.125,16.76c-0.146-0.109-3.591-2.742-4.915-7.318l0.961-0.277
						c1.229,4.244,4.522,6.772,4.556,6.797L105.125,16.76z"/>
				</g>
			</g>
			<g>
				<path style="fill:#FFFFFF;" d="M452.682,0c-1.29,9.831-9.681,17.426-19.863,17.426c-4.544,0-8.721-1.529-12.083-4.076
					c-1.283,17.347-15.752,31.025-33.427,31.025c-14.073,0-26.112-8.674-31.086-20.963c-3.328,1.703-7.095,2.67-11.09,2.67
					c-13.466,0-24.383-10.917-24.383-24.383c0-0.572,0.027-1.137,0.066-1.699H452.682z"/>
				<path style="fill:#C5D7FF;" d="M356.436,23.864l-0.427-0.904c0.061-0.028,6.072-2.979,8.408-12.174l0.969,0.246
					C362.928,20.711,356.7,23.74,356.436,23.864z"/>
				<path style="fill:#C5D7FF;" d="M365.865,11.453c-4.654,0-9.395-1.674-12.793-4.966l0.695-0.719
					c6.064,5.874,16.642,6.308,22.636,0.928l0.668,0.744C374.075,10.129,370.005,11.453,365.865,11.453z"/>
				<path style="fill:#FFFFFF;" d="M446.62,0c1.721,5.17,6.589,8.903,12.338,8.903c5.748,0,10.617-3.733,12.337-8.903H446.62z"/>
				<path style="fill:#FFFFFF;" d="M287.195,0c2.541,7.635,9.731,13.147,18.22,13.147c8.489,0,15.679-5.512,18.22-13.147H287.195z"
					/>
				<polygon style="fill:#C5D7FF;" points="321.421,5.421 320.567,4.899 322.062,2.458 322.916,2.979 				"/>
				<path style="fill:#C5D7FF;" d="M420.448,13.76c-0.124-0.087-3.078-2.187-5.795-6.545l0.848-0.529
					c2.603,4.174,5.493,6.235,5.521,6.256L420.448,13.76z"/>
				<path style="fill:#C5D7FF;" d="M450.538,6.45c-0.066-0.06-1.639-1.459-2.193-2.214l0.805-0.592
					c0.41,0.556,1.621,1.674,2.053,2.058L450.538,6.45z"/>
			</g>
			<g>
				<path style="fill:#FFFFFF;" d="M647.187,0H750v81.197c-0.972,0.053-1.948,0.09-2.933,0.09
					c-25.076,0-46.078-17.386-51.644-40.758c-4.571,2.238-9.691,3.529-15.124,3.529c-19.047,0-34.487-15.44-34.487-34.487
					C645.812,6.246,646.309,3.042,647.187,0z"/>
				<path style="fill:#C5D7FF;" d="M695.615,40.99l-0.385-0.923c0.143-0.06,14.301-6.135,19.107-21.471l0.955,0.299
					C710.343,34.688,695.761,40.929,695.615,40.99z"/>
				<path style="fill:#C5D7FF;" d="M731.237,27.431c-6.904,0-12.215-2.082-15.358-6.021c-3.066-3.842-3.937-9.165-2.519-15.396
					l0.975,0.223c-1.348,5.923-0.543,10.955,2.326,14.55c2.946,3.692,7.987,5.644,14.576,5.644V27.431z"/>
				<path style="fill:#FFFFFF;" d="M603.304,0c4.508,9.986,14.545,16.939,26.212,16.939c11.667,0,21.705-6.954,26.212-16.939
					H603.304z"/>
				<path style="fill:#FFFFFF;" d="M570.069,0c-0.241,1.297-0.374,2.633-0.374,4c0,12.005,9.732,21.737,21.737,21.737
					c12.005,0,21.737-9.732,21.737-21.737c0-1.367-0.132-2.703-0.374-4H570.069z"/>
				<path style="fill:#C5D7FF;" d="M611.767,11.434c-0.173-0.119-4.247-2.975-7.017-7.952l0.873-0.486
					c2.652,4.766,6.672,7.589,6.713,7.616L611.767,11.434z"/>
				<path style="fill:#C5D7FF;" d="M646.107,12.276l-0.59-0.807c0.038-0.028,3.831-2.815,5.461-4.92l0.791,0.613
					C650.052,9.378,646.267,12.159,646.107,12.276z"/>
				<path style="fill:#C5D7FF;" d="M659.085,9.637c-9.389,0-10.963-6.221-10.978-6.284l0.973-0.23
					c0.055,0.225,1.442,5.515,10.005,5.515V9.637z"/>
			</g>
		</g>
	</g>
	<g>
		<path style="fill:#9AB4F7;" d="M21.678,110.971l1.094-12.222c0.05-0.597,0.952-0.599,1,0c0,0,1.094,12.222,1.094,12.222
			C24.984,113.263,21.561,113.269,21.678,110.971L21.678,110.971z"/>
		<path style="fill:#9AB4F7;" d="M13.81,251.859l1.094-12.222c0.05-0.597,0.952-0.599,1,0l1.094,12.222
			C17.115,254.152,13.693,254.158,13.81,251.859L13.81,251.859z"/>
		<path style="fill:#9AB4F7;" d="M38.827,123.48l1.094-12.222c0.05-0.597,0.952-0.599,1,0l1.093,12.222
			C42.132,125.772,38.709,125.778,38.827,123.48L38.827,123.48z"/>
		<path style="fill:#9AB4F7;" d="M23.979,149.947l1.094-12.222c0.05-0.597,0.952-0.599,1,0l1.094,12.222
			C27.285,152.24,23.862,152.245,23.979,149.947L23.979,149.947z"/>
		<path style="fill:#9AB4F7;" d="M106.074,105.795l1.094-12.222c0.049-0.597,0.952-0.599,1,0c0,0,1.094,12.222,1.094,12.222
			C109.379,108.088,105.956,108.093,106.074,105.795L106.074,105.795z"/>
		<path style="fill:#9AB4F7;" d="M127.499,116.129l1.094-12.222c0.049-0.597,0.952-0.599,1,0l1.093,12.222
			C130.805,118.421,127.382,118.427,127.499,116.129L127.499,116.129z"/>
		<path style="fill:#9AB4F7;" d="M76.04,129.591l1.094-12.222c0.05-0.597,0.952-0.599,1,0l1.093,12.222
			C79.345,131.883,75.923,131.889,76.04,129.591L76.04,129.591z"/>
		<path style="fill:#9AB4F7;" d="M367.707,129.154l1.093-12.222c0.05-0.597,0.952-0.599,1,0l1.094,12.222
			C371.013,131.447,367.59,131.452,367.707,129.154L367.707,129.154z"/>
		<path style="fill:#9AB4F7;" d="M500.734,230.216l1.094-12.222c0.05-0.597,0.952-0.599,1,0l1.093,12.222
			C504.04,232.509,500.617,232.514,500.734,230.216L500.734,230.216z"/>
		<path style="fill:#9AB4F7;" d="M582.517,237.412l1.094-12.222c0.05-0.597,0.952-0.599,1,0l1.094,12.222
			C585.823,239.705,582.4,239.71,582.517,237.412L582.517,237.412z"/>
		<path style="fill:#9AB4F7;" d="M673.374,380.42l1.094-12.222c0.05-0.597,0.952-0.599,1,0l1.094,12.222
			C676.68,382.713,673.257,382.718,673.374,380.42L673.374,380.42z"/>
		<path style="fill:#9AB4F7;" d="M73.352,390l1.093-12.222c0.05-0.597,0.952-0.599,1,0L76.539,390
			C76.658,392.292,73.234,392.298,73.352,390L73.352,390z"/>
		<path style="fill:#9AB4F7;" d="M64.668,369.607l1.094-12.222c0.05-0.597,0.952-0.599,1,0c0,0,1.093,12.222,1.093,12.222
			C67.974,371.899,64.551,371.905,64.668,369.607L64.668,369.607z"/>
		<path style="fill:#9AB4F7;" d="M268.415,229.148l1.094-12.222c0.05-0.597,0.952-0.599,1,0l1.094,12.222
			C271.72,231.44,268.297,231.446,268.415,229.148L268.415,229.148z"/>
		<path style="fill:#9AB4F7;" d="M616.069,240.641l1.094-12.222c0.05-0.597,0.952-0.599,1,0l1.094,12.222
			C619.375,242.934,615.952,242.939,616.069,240.641L616.069,240.641z"/>
		<path style="fill:#9AB4F7;" d="M420.995,332.927l1.094-12.222c0.05-0.597,0.952-0.599,1,0l1.094,12.222
			C424.301,335.219,420.878,335.225,420.995,332.927L420.995,332.927z"/>
		<path style="fill:#9AB4F7;" d="M34.149,326.816l1.093-12.222c0.05-0.597,0.952-0.599,1,0c0,0,1.094,12.222,1.094,12.222
			C37.454,329.108,34.031,329.114,34.149,326.816L34.149,326.816z"/>
		<path style="fill:#9AB4F7;" d="M95.936,141.94l1.093-12.222c0.05-0.597,0.952-0.599,1,0c0,0,1.094,12.222,1.094,12.222
			C99.242,144.232,95.819,144.238,95.936,141.94L95.936,141.94z"/>
		<path style="fill:#9AB4F7;" d="M231.691,111.906l1.093-12.222c0.05-0.597,0.952-0.599,1,0c0,0,1.094,12.222,1.094,12.222
			C234.996,114.199,231.573,114.204,231.691,111.906L231.691,111.906z"/>
		<path style="fill:#9AB4F7;" d="M38.827,229.6l1.094-12.222c0.05-0.597,0.952-0.599,1,0l1.093,12.222
			C42.132,231.893,38.709,231.898,38.827,229.6L38.827,229.6z"/>
		<path style="fill:#9AB4F7;" d="M21.678,190.518l1.094-12.222c0.05-0.597,0.952-0.599,1,0l1.094,12.222
			C24.984,192.811,21.561,192.817,21.678,190.518L21.678,190.518z"/>
		<path style="fill:#9AB4F7;" d="M89.064,204.93l1.094-12.222c0.05-0.597,0.952-0.599,1,0l1.093,12.222
			C92.37,207.222,88.947,207.228,89.064,204.93L89.064,204.93z"/>
		<path style="fill:#9AB4F7;" d="M101.541,213.245l1.093-12.222c0.05-0.597,0.952-0.599,1,0l1.094,12.222
			C104.847,215.537,101.424,215.543,101.541,213.245L101.541,213.245z"/>
		<path style="fill:#9AB4F7;" d="M353.075,147.438l1.094-12.222c0.05-0.597,0.952-0.599,1,0l1.094,12.222
			C356.381,149.731,352.958,149.736,353.075,147.438L353.075,147.438z"/>
		<path style="fill:#9AB4F7;" d="M394.151,238.873l1.094-12.222c0.05-0.597,0.952-0.599,1,0l1.094,12.222
			C397.457,241.166,394.034,241.171,394.151,238.873L394.151,238.873z"/>
		<path style="fill:#9AB4F7;" d="M415.3,290.173l1.093-12.222c0.05-0.597,0.952-0.599,1,0l1.094,12.222
			C418.606,292.466,415.183,292.472,415.3,290.173L415.3,290.173z"/>
		<path style="fill:#9AB4F7;" d="M294.579,235.265l1.094-12.222c0.05-0.597,0.952-0.599,1,0l1.093,12.222
			C297.884,237.558,294.461,237.563,294.579,235.265L294.579,235.265z"/>
		<path style="fill:#9AB4F7;" d="M594.314,264.672l1.094-12.222c0.05-0.597,0.952-0.599,1,0l1.093,12.222
			C597.62,266.964,594.197,266.97,594.314,264.672L594.314,264.672z"/>
		<path style="fill:#9AB4F7;" d="M483.263,401.254l1.094-12.222c0.05-0.597,0.952-0.599,1,0c0,0,1.094,12.222,1.094,12.222
			C486.569,403.547,483.146,403.553,483.263,401.254L483.263,401.254z"/>
		<path style="fill:#9AB4F7;" d="M323.44,403.689l1.094-12.222c0.05-0.597,0.952-0.599,1,0l1.094,12.222
			C326.746,405.982,323.323,405.987,323.44,403.689L323.44,403.689z"/>
		<path style="fill:#9AB4F7;" d="M422.03,425.396l1.094-12.222c0.05-0.597,0.952-0.599,1,0c0,0,1.094,12.222,1.094,12.222
			C425.336,427.688,421.913,427.694,422.03,425.396L422.03,425.396z"/>
		<path style="fill:#9AB4F7;" d="M391.504,148.333l1.094-12.222c0.049-0.597,0.952-0.599,1,0c0,0,1.094,12.222,1.094,12.222
			C394.81,150.626,391.387,150.631,391.504,148.333L391.504,148.333z"/>
		<path style="fill:#9AB4F7;" d="M382.441,159.946l1.094-12.222c0.05-0.597,0.952-0.599,1,0l1.093,12.222
			C385.747,162.239,382.324,162.245,382.441,159.946L382.441,159.946z"/>
		<path style="fill:#9AB4F7;" d="M415.3,136.35l1.093-12.222c0.05-0.597,0.952-0.599,1,0l1.094,12.222
			C418.606,138.642,415.183,138.648,415.3,136.35L415.3,136.35z"/>
		<path style="fill:#9AB4F7;" d="M423.627,254.099l1.094-12.222c0.05-0.597,0.952-0.599,1,0l1.094,12.222
			C426.933,256.391,423.51,256.397,423.627,254.099L423.627,254.099z"/>
		<path style="fill:#9AB4F7;" d="M415.3,164.861l1.094-12.222c0.05-0.597,0.952-0.599,1,0l1.094,12.222
			C418.606,167.153,415.183,167.159,415.3,164.861L415.3,164.861z"/>
		<path style="fill:#9AB4F7;" d="M329.104,134.744l1.094-12.222c0.05-0.597,0.952-0.599,1,0l1.094,12.222
			C332.41,137.036,328.987,137.042,329.104,134.744L329.104,134.744z"/>
		<path style="fill:#9AB4F7;" d="M506.038,110.018l1.094-12.222c0.05-0.597,0.952-0.599,1,0l1.094,12.222
			C509.344,112.31,505.921,112.316,506.038,110.018L506.038,110.018z"/>
		<path style="fill:#9AB4F7;" d="M610.363,114.592l1.094-12.222c0.05-0.597,0.952-0.599,1,0l1.094,12.222
			C613.669,116.885,610.246,116.891,610.363,114.592L610.363,114.592z"/>
		<path style="fill:#9AB4F7;" d="M598.151,129.154l1.094-12.222c0.05-0.597,0.952-0.599,1,0l1.093,12.222
			C601.457,131.447,598.034,131.452,598.151,129.154L598.151,129.154z"/>
		<path style="fill:#9AB4F7;" d="M508.351,218.848l1.093-12.222c0.05-0.597,0.952-0.599,1,0l1.094,12.222
			C511.657,221.141,508.234,221.147,508.351,218.848L508.351,218.848z"/>
		<path style="fill:#9AB4F7;" d="M631.347,139.471l1.094-12.222c0.05-0.597,0.952-0.599,1,0l1.094,12.222
			C634.653,141.763,631.229,141.769,631.347,139.471L631.347,139.471z"/>
		<path style="fill:#9AB4F7;" d="M711.07,138.386l1.093-12.222c0.05-0.597,0.952-0.599,1,0c0,0,1.094,12.222,1.094,12.222
			C714.376,140.678,710.953,140.684,711.07,138.386L711.07,138.386z"/>
		<path style="fill:#9AB4F7;" d="M448.607,237.367l1.094-12.222c0.05-0.597,0.952-0.599,1,0c0,0,1.093,12.222,1.093,12.222
			C451.913,239.659,448.49,239.665,448.607,237.367L448.607,237.367z"/>
		<path style="fill:#9AB4F7;" d="M701.651,272.08l1.094-12.222c0.05-0.597,0.952-0.599,1,0c0,0,1.094,12.222,1.094,12.222
			C704.956,274.373,701.533,274.378,701.651,272.08L701.651,272.08z"/>
		<path style="fill:#9AB4F7;" d="M730.961,272.843l1.094-12.222c0.05-0.597,0.952-0.599,1,0c0,0,1.094,12.222,1.094,12.222
			C734.266,275.135,730.844,275.142,730.961,272.843L730.961,272.843z"/>
		<path style="fill:#9AB4F7;" d="M121.818,193.497l1.094-12.222c0.05-0.597,0.952-0.599,1,0l1.093,12.222
			C125.123,195.79,121.7,195.796,121.818,193.497L121.818,193.497z"/>
		<path style="fill:#9AB4F7;" d="M249.238,98.397l1.094-12.222c0.05-0.597,0.952-0.599,1,0c0,0,1.094,12.222,1.094,12.222
			C252.544,100.69,249.121,100.696,249.238,98.397L249.238,98.397z"/>
		<path style="fill:#9AB4F7;" d="M185.031,97.796l1.094-12.222c0.05-0.597,0.952-0.599,1,0l1.094,12.222
			C188.337,100.088,184.914,100.094,185.031,97.796L185.031,97.796z"/>
		<path style="fill:#9AB4F7;" d="M230.094,134.744l1.094-12.222c0.05-0.597,0.952-0.599,1,0l1.094,12.222
			C233.4,137.036,229.977,137.042,230.094,134.744L230.094,134.744z"/>
		<path style="fill:#9AB4F7;" d="M211.03,91.201l1.094-12.222c0.05-0.597,0.952-0.599,1,0c0,0,1.094,12.222,1.094,12.222
			C214.336,93.494,210.913,93.5,211.03,91.201L211.03,91.201z"/>
		<path style="fill:#9AB4F7;" d="M118.41,141.94l1.094-12.222c0.05-0.597,0.952-0.599,1,0l1.093,12.222
			C121.716,144.232,118.293,144.238,118.41,141.94L118.41,141.94z"/>
		<path style="fill:#9AB4F7;" d="M152.557,147.438l1.094-12.222c0.05-0.597,0.952-0.599,1,0c0,0,1.094,12.222,1.094,12.222
			C155.863,149.731,152.44,149.736,152.557,147.438L152.557,147.438z"/>
		<path style="fill:#9AB4F7;" d="M141.913,168.726l1.093-12.222c0.05-0.597,0.952-0.599,1,0c0,0,1.094,12.222,1.094,12.222
			C145.219,171.019,141.796,171.024,141.913,168.726L141.913,168.726z"/>
		<path style="fill:#9AB4F7;" d="M203.224,150.107l1.094-12.222c0.05-0.597,0.952-0.599,1,0l1.094,12.222
			C206.53,152.399,203.107,152.405,203.224,150.107L203.224,150.107z"/>
		<path style="fill:#9AB4F7;" d="M188.362,144.631l1.093-12.222c0.05-0.597,0.952-0.599,1,0c0,0,1.094,12.222,1.094,12.222
			C191.667,146.923,188.245,146.929,188.362,144.631L188.362,144.631z"/>
		<path style="fill:#9AB4F7;" d="M358.509,105.884l1.094-12.222c0.05-0.597,0.952-0.599,1,0l1.094,12.222
			C361.815,108.176,358.392,108.182,358.509,105.884L358.509,105.884z"/>
		<path style="fill:#9AB4F7;" d="M427.395,88.874l1.094-12.222c0.05-0.597,0.952-0.599,1,0l1.094,12.222
			C430.701,91.166,427.277,91.172,427.395,88.874L427.395,88.874z"/>
		<path style="fill:#9AB4F7;" d="M451.838,145.582l1.094-12.222c0.05-0.597,0.952-0.599,1,0l1.094,12.222
			C455.144,147.874,451.721,147.88,451.838,145.582L451.838,145.582z"/>
		<path style="fill:#9AB4F7;" d="M495.843,102.125l1.094-12.222c0.05-0.597,0.952-0.599,1,0l1.094,12.222
			C499.149,104.417,495.725,104.423,495.843,102.125L495.843,102.125z"/>
		<path style="fill:#9AB4F7;" d="M480.781,156.573l1.094-12.222c0.05-0.597,0.952-0.599,1,0l1.094,12.222
			C484.086,158.865,480.664,158.871,480.781,156.573L480.781,156.573z"/>
		<path style="fill:#9AB4F7;" d="M314.012,130.239l1.094-12.222c0.05-0.597,0.952-0.599,1,0c0,0,1.094,12.222,1.094,12.222
			C317.318,132.531,313.895,132.537,314.012,130.239L314.012,130.239z"/>
		<path style="fill:#9AB4F7;" d="M430.351,180.169l1.094-12.222c0.05-0.597,0.952-0.599,1,0c0,0,1.094,12.222,1.094,12.222
			C433.657,182.461,430.234,182.467,430.351,180.169L430.351,180.169z"/>
		<path style="fill:#9AB4F7;" d="M382.441,111.906l1.094-12.222c0.05-0.597,0.952-0.599,1,0c0,0,1.093,12.222,1.093,12.222
			C385.747,114.199,382.324,114.204,382.441,111.906L382.441,111.906z"/>
		<path style="fill:#9AB4F7;" d="M549.843,115.858l1.093-12.222c0.05-0.597,0.952-0.599,1,0l1.094,12.222
			C553.148,118.15,549.725,118.157,549.843,115.858L549.843,115.858z"/>
		<path style="fill:#9AB4F7;" d="M438.442,124.128l1.094-12.222c0.05-0.597,0.952-0.599,1,0c0,0,1.094,12.222,1.094,12.222
			C441.748,126.42,438.325,126.426,438.442,124.128L438.442,124.128z"/>
		<path style="fill:#9AB4F7;" d="M412.86,98.397l1.093-12.222c0.05-0.597,0.952-0.599,1,0c0,0,1.094,12.222,1.094,12.222
			C416.166,100.69,412.742,100.696,412.86,98.397L412.86,98.397z"/>
		<path style="fill:#9AB4F7;" d="M260.836,123.338l1.093-12.222c0.05-0.597,0.952-0.599,1,0c0,0,1.094,12.222,1.094,12.222
			C264.142,125.631,260.718,125.636,260.836,123.338L260.836,123.338z"/>
		<path style="fill:#9AB4F7;" d="M53.424,199.608l1.093-12.222c0.05-0.597,0.952-0.599,1,0l1.094,12.222
			C56.73,201.901,53.307,201.906,53.424,199.608L53.424,199.608z"/>
		<path style="fill:#9AB4F7;" d="M13.81,364.106l1.094-12.222c0.05-0.597,0.952-0.599,1,0l1.094,12.222
			C17.115,366.398,13.693,366.404,13.81,364.106L13.81,364.106z"/>
		<path style="fill:#9AB4F7;" d="M720.374,282.978l1.094-12.222c0.05-0.597,0.952-0.599,1,0l1.094,12.222
			C723.68,285.27,720.257,285.276,720.374,282.978L720.374,282.978z"/>
		<path style="fill:#9AB4F7;" d="M564.38,219.469l1.094-12.222c0.05-0.597,0.952-0.599,1,0l1.093,12.222
			C567.685,221.761,564.263,221.767,564.38,219.469L564.38,219.469z"/>
		<path style="fill:#9AB4F7;" d="M367.809,401.194l1.094-12.222c0.05-0.597,0.952-0.599,1,0c0,0,1.094,12.222,1.094,12.222
			C371.115,403.486,367.692,403.492,367.809,401.194L367.809,401.194z"/>
		<path style="fill:#9AB4F7;" d="M521.47,145.582l1.093-12.222c0.05-0.597,0.952-0.599,1,0l1.094,12.222
			C524.776,147.874,521.352,147.88,521.47,145.582L521.47,145.582z"/>
		<path style="fill:#9AB4F7;" d="M551.439,250.674l1.093-12.222c0.05-0.597,0.952-0.599,1,0c0,0,1.094,12.222,1.094,12.222
			C554.745,252.966,551.322,252.972,551.439,250.674L551.439,250.674z"/>
		<path style="fill:#9AB4F7;" d="M555.639,152.75l1.094-12.222c0.05-0.597,0.952-0.599,1,0l1.094,12.222
			C558.945,155.043,555.522,155.049,555.639,152.75L555.639,152.75z"/>
		<path style="fill:#9AB4F7;" d="M506.754,165.777l1.094-12.222c0.05-0.597,0.952-0.599,1,0c0,0,1.094,12.222,1.094,12.222
			C510.06,168.069,506.637,168.075,506.754,165.777L506.754,165.777z"/>
		<path style="fill:#9AB4F7;" d="M23.979,314.031l1.094-12.222c0.05-0.597,0.952-0.599,1,0l1.094,12.222
			C27.285,316.323,23.862,316.329,23.979,314.031L23.979,314.031z"/>
		<path style="fill:#9AB4F7;" d="M209.434,124.128l1.094-12.222c0.05-0.597,0.952-0.599,1,0l1.094,12.222
			C212.74,126.421,209.317,126.426,209.434,124.128L209.434,124.128z"/>
		<path style="fill:#9AB4F7;" d="M82.066,427.319l1.094-12.222c0.05-0.597,0.952-0.599,1,0l1.094,12.222
			C85.372,429.611,81.949,429.617,82.066,427.319L82.066,427.319z"/>
		<path style="fill:#9AB4F7;" d="M59.178,326.438l1.094-12.222c0.05-0.597,0.952-0.599,1,0l1.093,12.222
			C62.484,328.731,59.061,328.737,59.178,326.438L59.178,326.438z"/>
		<path style="fill:#9AB4F7;" d="M48.562,394.458l1.094-12.222c0.05-0.597,0.952-0.599,1,0c0,0,1.093,12.222,1.093,12.222
			C51.867,396.751,48.444,396.756,48.562,394.458L48.562,394.458z"/>
		<path style="fill:#9AB4F7;" d="M41.39,357.995l1.094-12.222c0.05-0.597,0.952-0.599,1,0l1.094,12.222
			C44.696,360.287,41.273,360.293,41.39,357.995L41.39,357.995z"/>
		<path style="fill:#9AB4F7;" d="M77.439,286.472l1.094-12.222c0.05-0.597,0.952-0.599,1,0c0,0,1.094,12.222,1.094,12.222
			C80.745,288.765,77.322,288.77,77.439,286.472L77.439,286.472z"/>
		<path style="fill:#9AB4F7;" d="M241.179,140.242l1.094-12.222c0.05-0.597,0.952-0.599,1,0l1.094,12.222
			C244.485,142.535,241.062,142.541,241.179,140.242L241.179,140.242z"/>
		<path style="fill:#9AB4F7;" d="M495.843,178.334l1.094-12.222c0.05-0.597,0.952-0.599,1,0c0,0,1.094,12.222,1.094,12.222
			C499.149,180.627,495.725,180.632,495.843,178.334L495.843,178.334z"/>
		<path style="fill:#9AB4F7;" d="M534.283,229.6l1.094-12.222c0.05-0.597,0.952-0.599,1,0l1.094,12.222
			C537.589,231.893,534.166,231.898,534.283,229.6L534.283,229.6z"/>
		<path style="fill:#9AB4F7;" d="M573.166,133.36l1.094-12.222c0.05-0.597,0.952-0.599,1,0c0,0,1.094,12.222,1.094,12.222
			C576.472,135.652,573.049,135.658,573.166,133.36L573.166,133.36z"/>
		<path style="fill:#9AB4F7;" d="M469.3,116.142l1.094-12.222c0.05-0.597,0.952-0.599,1,0l1.094,12.222
			C472.606,118.435,469.183,118.44,469.3,116.142L469.3,116.142z"/>
		<path style="fill:#9AB4F7;" d="M345.014,116.284l1.094-12.222c0.05-0.597,0.952-0.599,1,0c0,0,1.094,12.222,1.094,12.222
			C348.32,118.576,344.897,118.582,345.014,116.284L345.014,116.284z"/>
		<path style="fill:#9AB4F7;" d="M164.903,134.744l1.094-12.222c0.05-0.597,0.952-0.599,1,0c0,0,1.094,12.222,1.094,12.222
			C168.209,137.036,164.786,137.042,164.903,134.744L164.903,134.744z"/>
		<path style="fill:#9AB4F7;" d="M171.938,163.933l1.094-12.222c0.05-0.597,0.952-0.599,1,0l1.093,12.222
			C175.243,166.225,171.82,166.231,171.938,163.933L171.938,163.933z"/>
		<path style="fill:#9AB4F7;" d="M171.229,105.795l1.094-12.222c0.05-0.597,0.952-0.599,1,0l1.094,12.222
			C174.535,108.088,171.112,108.093,171.229,105.795L171.229,105.795z"/>
		<path style="fill:#9AB4F7;" d="M75.842,186.301l1.093-12.222c0.05-0.597,0.952-0.599,1,0l1.094,12.222
			C79.148,188.594,75.725,188.6,75.842,186.301L75.842,186.301z"/>
		<path style="fill:#9AB4F7;" d="M149.364,108.236l1.093-12.222c0.05-0.597,0.952-0.599,1,0l1.094,12.222
			C152.67,110.528,149.247,110.534,149.364,108.236L149.364,108.236z"/>
		<path style="fill:#9AB4F7;" d="M10.556,179.191l1.094-12.222c0.05-0.597,0.952-0.599,1,0c0,0,1.094,12.222,1.094,12.222
			C13.861,181.484,10.438,181.489,10.556,179.191L10.556,179.191z"/>
		<path style="fill:#9AB4F7;" d="M41.39,275.091l1.094-12.222c0.05-0.597,0.952-0.599,1,0l1.094,12.222
			C44.696,277.384,41.273,277.389,41.39,275.091L41.39,275.091z"/>
		<path style="fill:#9AB4F7;" d="M645.263,96.501l1.094-12.222c0.05-0.597,0.952-0.599,1,0c0,0,1.094,12.222,1.094,12.222
			C648.568,98.793,645.145,98.799,645.263,96.501L645.263,96.501z"/>
		<path style="fill:#9AB4F7;" d="M638.245,228.949l1.094-12.222c0.05-0.597,0.952-0.599,1,0c0,0,1.094,12.222,1.094,12.222
			C641.551,231.241,638.128,231.247,638.245,228.949L638.245,228.949z"/>
		<path style="fill:#9AB4F7;" d="M656.015,108.662l1.094-12.222c0.05-0.597,0.952-0.599,1,0l1.094,12.222
			C659.321,110.955,655.898,110.961,656.015,108.662L656.015,108.662z"/>
		<path style="fill:#9AB4F7;" d="M683.774,239.709l1.094-12.222c0.05-0.597,0.952-0.599,1,0l1.094,12.222
			C687.08,242.002,683.657,242.007,683.774,239.709L683.774,239.709z"/>
		<path style="fill:#9AB4F7;" d="M686.02,146.639l1.094-12.222c0.05-0.597,0.952-0.599,1,0c0,0,1.094,12.222,1.094,12.222
			C689.326,148.932,685.903,148.938,686.02,146.639L686.02,146.639z"/>
		<path style="fill:#9AB4F7;" d="M676.452,133.36l1.094-12.222c0.05-0.597,0.952-0.599,1,0c0,0,1.094,12.222,1.094,12.222
			C679.758,135.652,676.335,135.658,676.452,133.36L676.452,133.36z"/>
		<path style="fill:#9AB4F7;" d="M736.257,121.969l1.094-12.222c0.05-0.597,0.952-0.599,1,0c0,0,1.094,12.222,1.094,12.222
			C739.563,124.261,736.14,124.268,736.257,121.969L736.257,121.969z"/>
		<path style="fill:#9AB4F7;" d="M708.588,104.508l1.093-12.222c0.05-0.597,0.952-0.599,1,0l1.094,12.222
			C711.894,106.8,708.471,106.807,708.588,104.508L708.588,104.508z"/>
		<path style="fill:#9AB4F7;" d="M685.371,98.688l1.094-12.222c0.05-0.597,0.952-0.599,1,0l1.094,12.222
			C688.677,100.98,685.254,100.986,685.371,98.688L685.371,98.688z"/>
		<path style="fill:#9AB4F7;" d="M650.176,171.138l1.094-12.222c0.05-0.597,0.952-0.599,1,0l1.094,12.222
			C653.482,173.431,650.058,173.436,650.176,171.138L650.176,171.138z"/>
		<path style="fill:#9AB4F7;" d="M714.889,174.515l1.094-12.222c0.05-0.597,0.952-0.599,1,0l1.094,12.222
			C718.195,176.808,714.772,176.814,714.889,174.515L714.889,174.515z"/>
		<path style="fill:#9AB4F7;" d="M671.173,229.6l1.094-12.222c0.05-0.597,0.952-0.599,1,0l1.094,12.222
			C674.479,231.892,671.055,231.898,671.173,229.6L671.173,229.6z"/>
		<path style="fill:#9AB4F7;" d="M706.372,243.478l1.093-12.222c0.05-0.597,0.952-0.599,1,0l1.094,12.222
			C709.678,245.77,706.254,245.776,706.372,243.478L706.372,243.478z"/>
		<path style="fill:#9AB4F7;" d="M732.557,228.949l1.094-12.222c0.05-0.597,0.952-0.599,1,0l1.094,12.222
			C735.863,231.241,732.44,231.247,732.557,228.949L732.557,228.949z"/>
		<path style="fill:#9AB4F7;" d="M469.3,296.284l1.094-12.222c0.05-0.597,0.952-0.599,1,0c0,0,1.094,12.222,1.094,12.222
			C472.606,298.577,469.183,298.583,469.3,296.284L469.3,296.284z"/>
		<path style="fill:#9AB4F7;" d="M449.7,315.769l1.094-12.222c0.05-0.597,0.952-0.599,1,0l1.094,12.222
			C453.006,318.062,449.583,318.067,449.7,315.769L449.7,315.769z"/>
		<path style="fill:#9AB4F7;" d="M397.9,343.649l1.094-12.222c0.05-0.597,0.952-0.599,1,0l1.094,12.222
			C401.206,345.941,397.782,345.947,397.9,343.649L397.9,343.649z"/>
		<path style="fill:#9AB4F7;" d="M499.137,144.631l1.094-12.222c0.05-0.597,0.952-0.599,1,0l1.094,12.222
			C502.443,146.923,499.02,146.929,499.137,144.631L499.137,144.631z"/>
		<path style="fill:#9AB4F7;" d="M455.47,183.126l1.094-12.222c0.05-0.597,0.952-0.599,1,0l1.094,12.222
			C458.776,185.418,455.353,185.424,455.47,183.126L455.47,183.126z"/>
		<path style="fill:#9AB4F7;" d="M479.368,218.848l1.094-12.222c0.05-0.597,0.952-0.599,1,0l1.094,12.222
			C482.674,221.141,479.251,221.146,479.368,218.848L479.368,218.848z"/>
		<path style="fill:#9AB4F7;" d="M429.843,221.952l1.094-12.222c0.05-0.597,0.952-0.599,1,0l1.093,12.222
			C433.149,224.244,429.725,224.25,429.843,221.952L429.843,221.952z"/>
		<path style="fill:#9AB4F7;" d="M440.039,191.988l1.094-12.222c0.05-0.597,0.952-0.599,1,0l1.093,12.222
			C443.345,194.281,439.921,194.287,440.039,191.988L440.039,191.988z"/>
		<path style="fill:#9AB4F7;" d="M654.606,413.515l1.093-12.222c0.05-0.597,0.952-0.599,1,0c0,0,1.094,12.222,1.094,12.222
			C657.911,415.808,654.488,415.814,654.606,413.515L654.606,413.515z"/>
		<path style="fill:#9AB4F7;" d="M484.86,253.803l1.094-12.222c0.05-0.597,0.952-0.599,1,0l1.094,12.222
			C488.165,256.096,484.742,256.101,484.86,253.803L484.86,253.803z"/>
		<path style="fill:#9AB4F7;" d="M472.581,261.295l1.094-12.222c0.05-0.597,0.952-0.599,1,0l1.094,12.222
			C475.887,263.587,472.464,263.593,472.581,261.295L472.581,261.295z"/>
		<path style="fill:#9AB4F7;" d="M571.929,246.747l0.749-12.222c0.034-0.597,0.652-0.599,0.685,0c0,0,0.748,12.222,0.748,12.222
			C574.192,249.039,571.848,249.045,571.929,246.747L571.929,246.747z"/>
		<path style="fill:#9AB4F7;" d="M299.222,391.467l1.094-12.222c0.05-0.597,0.952-0.599,1,0l1.094,12.222
			C302.527,393.76,299.104,393.765,299.222,391.467L299.222,391.467z"/>
		<path style="fill:#9AB4F7;" d="M88.664,317.778l1.094-12.222c0.05-0.597,0.952-0.599,1,0l1.093,12.222
			C91.97,320.07,88.547,320.076,88.664,317.778L88.664,317.778z"/>
		<path style="fill:#9AB4F7;" d="M526.798,118.167l1.094-12.222c0.05-0.597,0.952-0.599,1,0l1.094,12.222
			C530.104,120.459,526.681,120.465,526.798,118.167L526.798,118.167z"/>
		<path style="fill:#9AB4F7;" d="M106.074,280.361l1.093-12.222c0.05-0.597,0.952-0.599,1,0l1.094,12.222
			C109.379,282.654,105.956,282.659,106.074,280.361L106.074,280.361z"/>
		<path style="fill:#9AB4F7;" d="M90.261,391.467l1.094-12.222c0.049-0.597,0.952-0.599,1,0l1.093,12.222
			C93.567,393.76,90.144,393.766,90.261,391.467L90.261,391.467z"/>
		<path style="fill:#9AB4F7;" d="M87.197,355.177l1.093-12.222c0.05-0.597,0.952-0.599,1,0l1.094,12.222
			C90.502,357.469,87.079,357.475,87.197,355.177L87.197,355.177z"/>
		<path style="fill:#9AB4F7;" d="M526.798,264.672l1.094-12.222c0.05-0.597,0.952-0.599,1,0l1.094,12.222
			C530.104,266.964,526.681,266.97,526.798,264.672L526.798,264.672z"/>
		<path style="fill:#9AB4F7;" d="M657.611,250.074l1.093-12.222c0.05-0.597,0.952-0.599,1,0l1.094,12.222
			C660.917,252.366,657.494,252.372,657.611,250.074L657.611,250.074z"/>
		<path style="fill:#9AB4F7;" d="M523.371,458.725l1.094-12.222c0.05-0.597,0.952-0.599,1,0l1.094,12.222
			C526.677,461.017,523.254,461.023,523.371,458.725L523.371,458.725z"/>
		<path style="fill:#9AB4F7;" d="M100.499,410.904l1.094-12.222c0.05-0.597,0.952-0.599,1,0l1.093,12.222
			C103.805,413.197,100.381,413.203,100.499,410.904L100.499,410.904z"/>
		<path style="fill:#9AB4F7;" d="M387.844,420.192l1.094-12.222c0.05-0.597,0.952-0.599,1,0l1.094,12.222
			C391.15,422.484,387.727,422.49,387.844,420.192L387.844,420.192z"/>
		<path style="fill:#9AB4F7;" d="M613.434,434.515l1.093-12.222c0.05-0.597,0.952-0.599,1,0c0,0,1.094,12.222,1.094,12.222
			C616.74,436.807,613.317,436.813,613.434,434.515L613.434,434.515z"/>
		<path style="fill:#9AB4F7;" d="M598.151,226.665l1.094-12.222c0.05-0.597,0.952-0.599,1,0l1.093,12.222
			C601.457,228.957,598.034,228.963,598.151,226.665L598.151,226.665z"/>
		<path style="fill:#9AB4F7;" d="M401.093,401.194l1.094-12.222c0.05-0.597,0.952-0.599,1,0l1.093,12.222
			C404.399,403.486,400.976,403.492,401.093,401.194L401.093,401.194z"/>
		<path style="fill:#9AB4F7;" d="M496.443,410.904l1.094-12.222c0.05-0.597,0.952-0.599,1,0l1.094,12.222
			C499.749,413.197,496.326,413.202,496.443,410.904L496.443,410.904z"/>
		<path style="fill:#9AB4F7;" d="M709.474,338.637l1.094-12.222c0.05-0.597,0.952-0.599,1,0l1.094,12.222
			C712.779,340.929,709.357,340.935,709.474,338.637L709.474,338.637z"/>
		<path style="fill:#9AB4F7;" d="M730.961,373.224l1.094-12.222c0.05-0.597,0.952-0.599,1,0c0,0,1.094,12.222,1.094,12.222
			C734.266,375.516,730.844,375.522,730.961,373.224L730.961,373.224z"/>
		<path style="fill:#9AB4F7;" d="M542.593,440.565l1.094-12.222c0.05-0.597,0.952-0.599,1,0l1.094,12.222
			C545.899,442.858,542.476,442.864,542.593,440.565L542.593,440.565z"/>
		<path style="fill:#9AB4F7;" d="M722.825,326.415l1.094-12.222c0.05-0.597,0.952-0.599,1,0l1.094,12.222
			C726.131,328.707,722.708,328.713,722.825,326.415L722.825,326.415z"/>
		<path style="fill:#9AB4F7;" d="M639.842,338.637l1.094-12.222c0.05-0.597,0.952-0.599,1,0c0,0,1.094,12.222,1.094,12.222
			C643.148,340.929,639.725,340.935,639.842,338.637L639.842,338.637z"/>
		<path style="fill:#9AB4F7;" d="M464.872,415.724l1.093-12.222c0.05-0.597,0.952-0.599,1,0c0,0,1.094,12.222,1.094,12.222
			C468.177,418.016,464.754,418.022,464.872,415.724L464.872,415.724z"/>
		<path style="fill:#9AB4F7;" d="M624.771,264.672l1.094-12.222c0.05-0.597,0.952-0.599,1,0l1.094,12.222
			C628.077,266.964,624.654,266.97,624.771,264.672L624.771,264.672z"/>
		<path style="fill:#9AB4F7;" d="M585.71,279.276l1.094-12.222c0.05-0.597,0.952-0.599,1,0l1.094,12.222
			C589.016,281.569,585.593,281.574,585.71,279.276L585.71,279.276z"/>
		<path style="fill:#9AB4F7;" d="M441.635,408.98l1.094-12.222c0.05-0.597,0.952-0.599,1,0l1.094,12.222
			C444.941,411.273,441.518,411.278,441.635,408.98L441.635,408.98z"/>
		<path style="fill:#9AB4F7;" d="M584.114,428.404l1.094-12.222c0.05-0.597,0.952-0.599,1,0l1.094,12.222
			C587.419,430.696,583.996,430.702,584.114,428.404L584.114,428.404z"/>
		<path style="fill:#9AB4F7;" d="M688.897,367.399l1.094-12.222c0.05-0.597,0.952-0.599,1,0c0,0,1.093,12.222,1.093,12.222
			C692.203,369.691,688.78,369.697,688.897,367.399L688.897,367.399z"/>
		<path style="fill:#9AB4F7;" d="M713.062,393.998l1.094-12.222c0.05-0.597,0.952-0.599,1,0l1.094,12.222
			C716.368,396.29,712.945,396.296,713.062,393.998L713.062,393.998z"/>
		<path style="fill:#9AB4F7;" d="M680.223,330.161l1.094-12.222c0.05-0.597,0.952-0.599,1,0l1.094,12.222
			C683.529,332.453,680.106,332.459,680.223,330.161L680.223,330.161z"/>
		<path style="fill:#9AB4F7;" d="M564.995,313.908l1.094-12.222c0.05-0.597,0.952-0.599,1,0l1.094,12.222
			C568.301,316.2,564.878,316.206,564.995,313.908L564.995,313.908z"/>
		<path style="fill:#9AB4F7;" d="M623.175,403.689l1.094-12.222c0.05-0.597,0.952-0.599,1,0l1.093,12.222
			C626.481,405.982,623.057,405.987,623.175,403.689L623.175,403.689z"/>
		<path style="fill:#9AB4F7;" d="M637.808,390l1.094-12.222c0.05-0.597,0.952-0.599,1,0L640.995,390
			C641.114,392.292,637.691,392.298,637.808,390L637.808,390z"/>
		<path style="fill:#9AB4F7;" d="M588.146,326.415l1.093-12.222c0.049-0.597,0.952-0.599,1,0l1.094,12.222
			C591.451,328.707,588.028,328.713,588.146,326.415L588.146,326.415z"/>
		<path style="fill:#9AB4F7;" d="M540.997,403.708l1.094-12.222c0.05-0.597,0.952-0.599,1,0c0,0,1.093,12.222,1.093,12.222
			C544.302,406.001,540.879,406.006,540.997,403.708L540.997,403.708z"/>
		<path style="fill:#9AB4F7;" d="M549.843,288.279l1.093-12.222c0.05-0.597,0.952-0.599,1,0c0,0,1.094,12.222,1.094,12.222
			C553.148,290.571,549.725,290.577,549.843,288.279L549.843,288.279z"/>
		<path style="fill:#9AB4F7;" d="M495.843,288.279l1.094-12.222c0.05-0.597,0.952-0.599,1,0c0,0,1.094,12.222,1.094,12.222
			C499.149,290.571,495.725,290.577,495.843,288.279L495.843,288.279z"/>
		<path style="fill:#9AB4F7;" d="M573.166,437.488l1.094-12.222c0.05-0.597,0.952-0.599,1,0c0,0,1.094,12.222,1.094,12.222
			C576.472,439.78,573.049,439.786,573.166,437.488L573.166,437.488z"/>
		<path style="fill:#9AB4F7;" d="M563.571,403.689l1.094-12.222c0.05-0.597,0.952-0.599,1,0l1.094,12.222
			C566.877,405.982,563.454,405.987,563.571,403.689L563.571,403.689z"/>
		<path style="fill:#9AB4F7;" d="M521.775,425.396l1.094-12.222c0.05-0.597,0.952-0.599,1,0l1.094,12.222
			C525.081,427.688,521.658,427.694,521.775,425.396L521.775,425.396z"/>
		<path style="fill:#9AB4F7;" d="M352.342,413.515l1.094-12.222c0.05-0.597,0.952-0.599,1,0c0,0,1.094,12.222,1.094,12.222
			C355.647,415.808,352.225,415.814,352.342,413.515L352.342,413.515z"/>
		<path style="fill:#9AB4F7;" d="M480.965,324.471l1.094-12.222c0.05-0.597,0.952-0.599,1,0l1.094,12.222
			C484.27,326.763,480.847,326.769,480.965,324.471L480.965,324.471z"/>
		<path style="fill:#9AB4F7;" d="M392.554,316.534l1.094-12.222c0.05-0.597,0.952-0.599,1,0l1.094,12.222
			C395.86,318.827,392.437,318.833,392.554,316.534L392.554,316.534z"/>
		<path style="fill:#9AB4F7;" d="M435.48,401.194l1.094-12.222c0.05-0.597,0.952-0.599,1,0l1.094,12.222
			C438.786,403.486,435.363,403.492,435.48,401.194L435.48,401.194z"/>
		<path style="fill:#9AB4F7;" d="M376.492,432.225l1.094-12.222c0.05-0.597,0.952-0.599,1,0l1.094,12.222
			C379.798,434.518,376.375,434.524,376.492,432.225L376.492,432.225z"/>
		<path style="fill:#9AB4F7;" d="M341.501,430.292l1.094-12.222c0.05-0.597,0.952-0.599,1,0l1.094,12.222
			C344.807,432.585,341.383,432.59,341.501,430.292L341.501,430.292z"/>
		<path style="fill:#9AB4F7;" d="M660.625,352.908l1.094-12.222c0.05-0.597,0.952-0.599,1,0l1.094,12.222
			C663.931,355.2,660.508,355.206,660.625,352.908L660.625,352.908z"/>
		<path style="fill:#9AB4F7;" d="M613.434,349.066l1.093-12.222c0.05-0.597,0.952-0.599,1,0c0,0,1.094,12.222,1.094,12.222
			C616.74,351.358,613.317,351.364,613.434,349.066L613.434,349.066z"/>
		<path style="fill:#9AB4F7;" d="M678.627,406.319l1.094-12.222c0.05-0.597,0.952-0.599,1,0c0,0,1.094,12.222,1.094,12.222
			C681.932,408.612,678.51,408.618,678.627,406.319L678.627,406.319z"/>
		<path style="fill:#9AB4F7;" d="M399.496,436.739l1.094-12.222c0.05-0.597,0.952-0.599,1,0c0,0,1.094,12.222,1.094,12.222
			C402.802,439.032,399.379,439.038,399.496,436.739L399.496,436.739z"/>
		<path style="fill:#9AB4F7;" d="M534.283,298.694l1.094-12.222c0.05-0.597,0.952-0.599,1,0l1.094,12.222
			C537.589,300.987,534.166,300.992,534.283,298.694L534.283,298.694z"/>
		<path style="fill:#9AB4F7;" d="M331.067,235.468l1.094-12.222c0.05-0.597,0.952-0.599,1,0l1.094,12.222
			C334.373,237.761,330.95,237.766,331.067,235.468L331.067,235.468z"/>
		<path style="fill:#9AB4F7;" d="M364.616,234.852l1.094-12.222c0.05-0.597,0.952-0.599,1,0l1.094,12.222
			C367.922,237.145,364.499,237.15,364.616,234.852L364.616,234.852z"/>
		<path style="fill:#9AB4F7;" d="M299.633,301.537l1.094-12.222c0.05-0.597,0.952-0.599,1,0c0,0,1.094,12.222,1.094,12.222
			C302.939,303.829,299.516,303.835,299.633,301.537L299.633,301.537z"/>
		<path style="fill:#9AB4F7;" d="M315.193,259.055l1.094-12.222c0.05-0.597,0.952-0.599,1,0l1.093,12.222
			C318.498,261.348,315.075,261.353,315.193,259.055L315.193,259.055z"/>
		<path style="fill:#9AB4F7;" d="M302.914,266.547l1.094-12.222c0.05-0.597,0.952-0.599,1,0l1.094,12.222
			C306.22,268.839,302.797,268.845,302.914,266.547L302.914,266.547z"/>
		<path style="fill:#9AB4F7;" d="M357.131,269.924l1.094-12.222c0.05-0.597,0.952-0.599,1,0l1.094,12.222
			C360.437,272.216,357.014,272.222,357.131,269.924L357.131,269.924z"/>
		<path style="fill:#9AB4F7;" d="M335.917,331.441l1.094-12.222c0.05-0.597,0.952-0.599,1,0l1.094,12.222
			C339.223,333.733,335.8,333.739,335.917,331.441L335.917,331.441z"/>
		<path style="fill:#9AB4F7;" d="M380.175,293.531l1.093-12.222c0.05-0.597,0.952-0.599,1,0c0,0,1.094,12.222,1.094,12.222
			C383.481,295.823,380.058,295.829,380.175,293.531L380.175,293.531z"/>
		<path style="fill:#9AB4F7;" d="M310.041,363.202l1.094-12.222c0.05-0.597,0.952-0.599,1,0c0,0,1.094,12.222,1.094,12.222
			C313.347,365.495,309.924,365.5,310.041,363.202L310.041,363.202z"/>
		<path style="fill:#9AB4F7;" d="M298.036,355.676l1.094-12.222c0.05-0.597,0.952-0.599,1,0c0,0,1.094,12.222,1.094,12.222
			C301.342,357.969,297.919,357.974,298.036,355.676L298.036,355.676z"/>
		<path style="fill:#9AB4F7;" d="M326.176,293.531l1.094-12.222c0.05-0.597,0.952-0.599,1,0c0,0,1.093,12.222,1.093,12.222
			C329.482,295.823,326.058,295.829,326.176,293.531L326.176,293.531z"/>
		<path style="fill:#9AB4F7;" d="M315.193,331.667l1.094-12.222c0.05-0.597,0.952-0.599,1,0l1.094,12.222
			C318.498,333.96,315.075,333.965,315.193,331.667L315.193,331.667z"/>
		<path style="fill:#9AB4F7;" d="M352.342,312.806l1.094-12.222c0.05-0.597,0.952-0.599,1,0c0,0,1.093,12.222,1.093,12.222
			C355.648,315.099,352.224,315.105,352.342,312.806L352.342,312.806z"/>
		<path style="fill:#9AB4F7;" d="M364.616,303.946l1.094-12.222c0.05-0.597,0.952-0.599,1,0l1.094,12.222
			C367.922,306.239,364.499,306.244,364.616,303.946L364.616,303.946z"/>
		<path style="fill:#9AB4F7;" d="M440.039,282.608l1.094-12.222c0.05-0.597,0.952-0.599,1,0c0,0,1.093,12.222,1.093,12.222
			C443.345,284.9,439.921,284.906,440.039,282.608L440.039,282.608z"/>
		<path style="fill:#9AB4F7;" d="M724.633,203.511l1.094-12.222c0.049-0.597,0.952-0.599,1,0l1.094,12.222
			C727.938,205.804,724.515,205.81,724.633,203.511L724.633,203.511z"/>
		<path style="fill:#9AB4F7;" d="M695.233,175.93l1.094-12.222c0.05-0.597,0.952-0.599,1,0l1.094,12.222
			C698.539,178.223,695.116,178.228,695.233,175.93L695.233,175.93z"/>
	</g>
</g>
</svg>
